<svg width="301" height="138" fill="none" xmlns="http://www.w3.org/2000/svg"><g clip-path="url(#clip0_2638_33911)" fill="#408F95"><path d="M237.054 15.335a.701.701 0 00.632-.396c.376-.776.524-1.552.447-2.3-.398-3.83-6.369-5.74-10.732-7.133-4.603-1.47-9.478-2.316-14.484-2.512-.371-.027-.715.282-.731.673a.704.704 0 00.676.727c4.881.19 9.626 1.009 14.108 2.44 3.539 1.134 9.467 3.027 9.767 5.951.049.494-.054 1.014-.316 1.557a.697.697 0 00.633 1.003v-.01zm-78.655 4.279h.082a18.807 18.807 0 003.354-.7c1.456-.444 2.541-.987 2.999-1.214l.153-.076a195.05 195.05 0 0115.231-6.57c4.728-1.8 8.469-3.227 13.498-4.474a85.652 85.652 0 0116.332-2.392.699.699 0 10-.07-1.394 86.79 86.79 0 00-16.606 2.435c-5.115 1.27-8.884 2.707-13.661 4.524a196.977 196.977 0 00-15.34 6.612l-.169.082c-.469.233-1.445.721-2.787 1.133a17.41 17.41 0 01-3.103.646.696.696 0 00.082 1.388h.005z"/><path d="M224.075 27.707a.751.751 0 00.321-.076 91.844 91.844 0 004.712-2.598c.453-.271 1.298-.77 2.389-1.502.332-.223.692-.467 1.063-.738a46.07 46.07 0 003.834-3.043c.032-.033.065-.065.092-.103.06-.076.153-.19.273-.331 1.233-1.486 2.394-3.032 1.909-4.139-.153-.352-.529-.78-1.434-.83a.694.694 0 00-.742.657.7.7 0 00.66.737c.114.006.185.022.229.033 0 .25-.256.906-1.707 2.652-.109.13-.196.24-.262.32a46.251 46.251 0 01-3.67 2.908c-.365.26-.709.494-1.031.716-1.058.71-1.881 1.199-2.323 1.464a91.93 91.93 0 01-4.635 2.555.697.697 0 00-.3.944c.125.239.371.38.622.38v-.006zm-27.96 4.074c6.861 0 13.448-.77 13.53-.781a113.46 113.46 0 0012.407-2.256.697.697 0 10-.328-1.357c-4.041.971-8.163 1.72-12.248 2.224-.087.011-9.363 1.096-17.282.673a55.534 55.534 0 01-7.4-.895c-1.096-.206-1.691-.353-4.183-.955l-3.016-.732c-.987-.239-1.848-.456-2.612-.646-2.279-.569-3.784-.949-5.246-1.052a21.687 21.687 0 00-6.555.553.694.694 0 00-.518.841.696.696 0 00.845.516 20.464 20.464 0 016.13-.516c1.341.093 2.721.44 5.001 1.015.769.195 1.636.412 2.623.65l3.016.733c2.459.596 3.119.76 4.253.97a58.23 58.23 0 007.586.918 75.58 75.58 0 003.997.097zm-39.924-12.118a.698.698 0 00.207-1.367c-1.636-.499-10.165-3.048-17.195-4.079-3.43-.504-5.944-.553-8.681-.173-.895.124-1.789.298-2.662.51a.698.698 0 10.339 1.356 25.728 25.728 0 012.524-.483c2.596-.364 4.996-.315 8.284.168 6.926 1.02 15.368 3.537 16.987 4.036a.693.693 0 00.208.032h-.011zm-20.2 25.386c.049 0 .098 0 .147-.016 3.142-.673 8.486-3.26 10.438-5.045 1.685-1.253 3.032-2.246 4.178-3.092 3.964-2.924 5.606-4.128 10.814-8.489a.7.7 0 00.087-.982.708.708 0 00-.987-.086c-5.175 4.328-6.806 5.532-10.749 8.434-1.156.852-2.514 1.85-4.215 3.12-.022.016-.038.032-.06.048-1.756 1.627-6.888 4.1-9.806 4.725a.696.696 0 00-.539.83c.07.325.36.553.687.553h.005z"/><path d="M135.991 45.049a.704.704 0 00.513-.222c1.827-1.937 4.172-5.197 4.952-9.732.234-1.356.779-4.529-.502-8.136-1.173-3.293-3.218-5.197-5.584-7.404a31.853 31.853 0 00-7.024-4.942.705.705 0 00-.949.293.698.698 0 00.294.944 30.446 30.446 0 016.713 4.724c2.324 2.165 4.161 3.879 5.219 6.851 1.162 3.266.66 6.19.442 7.437-.72 4.193-2.896 7.214-4.592 9.01a.693.693 0 00.033.987c.136.125.311.19.48.19h.005zm9.8-21.822a.685.685 0 00.545-.26.695.695 0 00-.103-.982 19.086 19.086 0 00-3.888-2.425 19.414 19.414 0 00-5.268-1.6.699.699 0 10-.213 1.383 17.868 17.868 0 018.491 3.738.71.71 0 00.442.157l-.006-.011zm-2.874 15.161a.73.73 0 00.431-.146c1.516-1.167 4.21-3.678 5.17-7.4.294-1.15.916-3.547-.17-5.993a7.457 7.457 0 00-.534-.993.701.701 0 00-.971-.206.693.693 0 00-.207.966c.164.25.311.52.431.797.889 2.007.371 4.009.093 5.088-.857 3.32-3.294 5.587-4.668 6.64a.696.696 0 00-.126.981.693.693 0 00.556.271l-.005-.005zm69.193-14.993c.147 0 .294 0 .447-.01 3.19-.136 5.448-1.666 6.512-2.567a.694.694 0 00.081-.981.703.703 0 00-.987-.082c-.927.787-2.895 2.116-5.66 2.235-2.776.114-4.663-1.041-5.912-1.811-.681-.424-.943-.679-1.031-.792.208-.234 1.102-.64 4.003-1.156 2.607-.46 5.35-.575 8.153-.336a.696.696 0 10.12-1.389c-2.923-.25-5.791-.13-8.518.353-2.667.472-5.072 1.02-5.186 2.462-.055.657.463 1.27 1.723 2.045 1.249.77 3.299 2.03 6.26 2.03h-.005z"/><path d="M224.445 24.41a.71.71 0 00.616-.359.694.694 0 00-.272-.949 16.094 16.094 0 01-5.339-4.708 15.529 15.529 0 01-1.822-3.325.702.702 0 00-.91-.39.697.697 0 00-.393.905 17.138 17.138 0 001.985 3.618c1.511 2.105 3.463 3.83 5.797 5.12.109.06.224.087.338.087zm6.452-13.86a1.116 1.116 0 00-1.287-.911 1.112 1.112 0 00-.917 1.28 1.116 1.116 0 001.287.911 1.112 1.112 0 00.917-1.28zm-31.466 26.33a26.174 26.174 0 003.599-.293 25.81 25.81 0 004.761-1.193c5.671-2.007 8.774-3.738 13.912-6.602a.693.693 0 00.267-.949.702.702 0 00-.955-.266c-5.246 2.924-8.136 4.535-13.698 6.504a24.85 24.85 0 01-4.5 1.128c-1.112.168-2.241.26-3.364.277-1.282-.049-1.898-.222-2.176-.347.343-.233 1.221-.69 3.419-1.378a.696.696 0 10-.42-1.329c-3.534 1.107-4.728 1.866-4.564 2.891.207 1.28 2.225 1.503 3.724 1.562l-.005-.005z"/><path d="M197.288 33.831c.436 0 .85-.021 1.243-.043 5.633-.347 10.181-1.54 10.372-1.595a63.48 63.48 0 006.321-2.045.7.7 0 00.403-.9.706.706 0 00-.905-.402 62.502 62.502 0 01-6.179 2.002c-.185.049-4.597 1.21-10.094 1.546-1.265.076-2.628.108-4.226-.456a8.959 8.959 0 01-2.443-1.318.7.7 0 00-.982.136.693.693 0 00.136.976 10.35 10.35 0 002.82 1.52c1.303.46 2.486.58 3.539.58h-.005z"/><path d="M174.116 36.88c1.832 0 3.654-.179 5.459-.537a28.321 28.321 0 0011.136-4.925.698.698 0 00.147-.977.707.707 0 00-.982-.146 26.819 26.819 0 01-10.574 4.681 26.56 26.56 0 01-8.643.288c.109-.934.425-2.588 1.298-3.781.25-.342.665-.912 1.396-1.373.19-.124.338-.195.736-.39l.278-.136c.796-.396 1.44-.727 1.865-.949a.697.697 0 00.294-.944.703.703 0 00-.948-.293c-.42.223-1.053.548-1.838.933l-.273.136c-.42.206-.611.298-.872.466-.955.608-1.489 1.335-1.773 1.725-1.358 1.844-1.587 4.421-1.625 5.164a.703.703 0 00.595.727c1.439.223 2.884.336 4.33.336l-.006-.005zm-6.119-22.028c1.031 0 2.127-.07 3.348-.2a.696.696 0 00.622-.771.695.695 0 00-.774-.619c-1.178.125-2.225.19-3.207.196a.699.699 0 00-.698.7c0 .385.316.694.704.694h.005zm-.622-7.925a.756.756 0 00.219-.033c.785-.26 1.57-.526 2.356-.797 2.164-.743 4.406-1.513 6.729-2.023 10.111-2.045 19.959-2.924 29.263-2.61a.703.703 0 00.725-.672.699.699 0 00-.676-.721c-9.407-.32-19.37.564-29.601 2.636-2.416.531-4.69 1.312-6.893 2.072-.78.266-1.56.537-2.34.792a.695.695 0 00-.447.879.705.705 0 00.665.482v-.005zm53.564-1.633a.699.699 0 00.638-.407.698.698 0 00-.349-.922 45.419 45.419 0 00-5.503-2.072 45.502 45.502 0 00-7.416-1.6.697.697 0 10-.18 1.383 44.442 44.442 0 0112.521 3.558.678.678 0 00.289.066v-.006z"/><path d="M207.033 3.39a.715.715 0 00.594-.32.697.697 0 00-.213-.965 16.699 16.699 0 00-.632-.38 13.226 13.226 0 00-5.917-1.67.7.7 0 00-.731.666.7.7 0 00.671.727 11.843 11.843 0 015.29 1.486c.24.136.43.256.567.337a.672.672 0 00.376.108l-.005.011zm-9.778.613a.7.7 0 00.589-.32.7.7 0 00-.213-.965 16.7 16.7 0 00-.632-.38 13.145 13.145 0 00-3.229-1.28 13.226 13.226 0 00-2.694-.39.697.697 0 10-.06 1.393 11.836 11.836 0 015.29 1.486c.24.136.431.255.567.337a.688.688 0 00.376.108l.006.011zm-9.02 1.269a.715.715 0 00.594-.32.699.699 0 00-.212-.965 17.757 17.757 0 00-.633-.38 13.312 13.312 0 00-5.922-1.67.698.698 0 10-.06 1.394 11.836 11.836 0 015.289 1.486c.24.135.431.255.568.336a.672.672 0 00.376.109v.01zM174.831 34.07h.016c2.399-.06 4.679-.596 6.768-1.605a16.22 16.22 0 002.595-1.568.692.692 0 00.142-.976.7.7 0 00-.981-.142 14.486 14.486 0 01-2.367 1.433c-1.909.916-3.992 1.41-6.19 1.464a.707.707 0 00-.687.716c.011.38.322.684.704.684v-.006zm1.265-2.815a.722.722 0 00.24-.043l3.997-1.454a.697.697 0 00.42-.895.705.705 0 00-.9-.418l-3.997 1.454a.696.696 0 00-.42.895.704.704 0 00.66.46zm-9.958-16.468a.702.702 0 00.703-.678.698.698 0 00-.682-.716c-2.645-.076-3.773-.586-3.959-1.812.502-1.676 1.789-3.038 3.927-4.155a.697.697 0 00.294-.944.705.705 0 00-.949-.293c-2.557 1.335-4.084 3.021-4.662 5.153a.758.758 0 00-.022.25c.294 3.048 3.823 3.151 5.328 3.195h.022zM137.104 128.67a.703.703 0 00.578-.304c.316-.461.491-.949.518-1.448.126-2.452-3.277-4.144-5.764-5.381a32.256 32.256 0 00-8.278-2.777.698.698 0 10-.267 1.372 31.133 31.133 0 017.918 2.653c1.898.944 5.066 2.522 4.99 4.063-.011.238-.104.482-.273.726a.7.7 0 00.578 1.096z"/><path d="M127.626 134.968a.652.652 0 00.202-.033 43.37 43.37 0 003.822-1.356c.54-.222 1.277-.526 2.231-1.003.867-.44 1.723-.922 2.53-1.443.038-.027.077-.054.109-.087.039-.038.104-.092.18-.163.917-.813 1.795-1.681 1.571-2.522-.066-.244-.278-.673-.982-.819a.7.7 0 00-.512 1.28c-.148.195-.442.515-1.015 1.02-.065.059-.125.108-.169.152-.752.482-1.543.933-2.35 1.339-.905.456-1.614.749-2.132.961a40.59 40.59 0 01-3.692 1.312.705.705 0 00-.469.874.698.698 0 00.67.493l.006-.005z"/><path d="M121.534 135.364c1.86 0 3.731-.076 5.585-.233a.697.697 0 10-.12-1.389c-2.427.201-4.881.271-7.297.201-.049 0-5.524-.196-10.067-1.145a32.197 32.197 0 01-4.188-1.172c-.611-.217-.944-.352-2.34-.927l-1.685-.694c-.474-.196-.894-.375-1.281-.537-1.222-.516-2.105-.89-3.163-1.161a16.386 16.386 0 00-4.532-.51.707.707 0 00-.687.716.7.7 0 00.72.683c1.44-.032 2.83.125 4.144.461.96.25 1.8.603 2.967 1.096.393.168.818.347 1.298.543l1.685.694c1.385.569 1.756.721 2.405.949 1.434.505 2.907.917 4.368 1.221 4.668.971 10.083 1.166 10.312 1.171.622.017 1.249.027 1.871.027l.005.006zm-29.759-11.218h.028c.392-.016.79-.054 1.178-.108a11.417 11.417 0 001.914-.456l.082-.027a114.19 114.19 0 019.428-2.457c2.907-.624 5.203-1.118 8.224-1.394a49.631 49.631 0 019.664.065.698.698 0 10.141-1.389 51.641 51.641 0 00-9.936-.065c-3.108.282-5.442.787-8.393 1.421a114.523 114.523 0 00-9.548 2.49l-.104.033c-.262.086-.878.282-1.685.401a9.335 9.335 0 01-.954.092 10.817 10.817 0 01-1.538-.39c-.611-.201-1.042-.407-1.206-.483-1.663-.776-5.491-2.197-8.812-3.152-1.876-.542-3.316-.857-5.11-.884-.54-.011-1.09.011-1.625.06a.7.7 0 10.125 1.394c.491-.043.987-.06 1.484-.054 1.63.021 2.972.32 4.733.83 3.594 1.036 7.248 2.441 8.59 3.064.201.093.686.32 1.374.548a13.12 13.12 0 001.82.456c.04.005.077.011.12.011l.006-.006zm-16.164 12.807a.76.76 0 00.284-.06l7.744-3.411a61.308 61.308 0 004.133-2.268 66.126 66.126 0 002.967-1.887.696.696 0 00.185-.971.704.704 0 00-.976-.185 65.558 65.558 0 01-2.901 1.85 59.98 59.98 0 01-4.014 2.202l-7.71 3.396a.702.702 0 00-.36.922.7.7 0 00.643.418l.005-.006z"/><path d="M75.611 136.953a.697.697 0 00.535-.249 19.09 19.09 0 003.277-5.479c.638-1.649 1.14-2.951.927-4.659-.24-1.932-1.254-3.212-2.535-4.834l-.11-.141a18.946 18.946 0 00-3.697-3.552.706.706 0 00-.982.146.697.697 0 00.148.976 17.75 17.75 0 013.424 3.293l.11.141c1.188 1.508 2.05 2.598 2.246 4.144.17 1.362-.234 2.403-.845 3.982-.703 1.817-1.729 3.525-3.043 5.082a.694.694 0 00.534 1.145l.011.005zm47.123-5.75c1.609 0 2.852-.602 3.496-.992a.7.7 0 00.229-.96.706.706 0 00-.965-.228c-.578.352-1.778.922-3.316.754-1.538-.168-2.487-.977-3.119-1.514-.093-.076-.164-.146-.224-.2.376-.087 1.025-.141 1.947-.163a18.234 18.234 0 014.701.521.701.701 0 10.332-1.362 19.653 19.653 0 00-5.066-.564c-1.778.043-3.266.163-3.512 1.193-.147.63.376 1.177.911 1.633.671.57 1.914 1.622 3.877 1.839.246.027.48.038.709.038v.005z"/><path d="M128.946 132.825a.697.697 0 00.43-1.253 9.17 9.17 0 01-2.601-3.119 8.777 8.777 0 01-.736-2.034.701.701 0 00-.84-.521.696.696 0 00-.523.836c.19.819.474 1.605.85 2.348a10.56 10.56 0 002.994 3.597.705.705 0 00.431.146h-.005zm4.28-6.417h.022a1.363 1.363 0 001.342-1.372 1.345 1.345 0 00-1.38-1.334c-.365 0-.703.151-.954.412-.251.26-.388.602-.382.96a1.362 1.362 0 001.358 1.334h-.006zm.044-1.356s-.016.038-.044.044c-.021 0-.043-.022-.043-.044h.087zm0 0h-.087s.027-.06.043-.043c.022 0 .044.016.044.043zM115.339 138c.977 0 1.953-.092 2.913-.277 3.506-.667 5.475-1.399 8.736-2.614a.696.696 0 00.409-.901.7.7 0 00-.905-.406c-3.305 1.231-5.121 1.904-8.508 2.549-.878.168-1.75.25-2.666.25-.649 0-1.304-.049-1.947-.136a3.453 3.453 0 01-.976-.282c.272-.25.954-.705 2.35-1.302a.693.693 0 00.365-.917.7.7 0 00-.921-.363c-3.141 1.34-3.43 2.197-3.3 2.853.208 1.025 1.8 1.329 2.28 1.394.714.098 1.467.147 2.16.152h.01zm-14.386-2.219c.251 0 .502-.005.753-.016 2.432-.108 4.87-.77 7.046-1.909a.698.698 0 00.294-.944.704.704 0 00-.949-.293 15.517 15.517 0 01-6.456 1.747 15.363 15.363 0 01-4.685-.516c.196-.596.513-1.258.944-1.687.174-.173.43-.434.85-.613.126-.054.218-.081.431-.151l.175-.055c.501-.157.905-.293 1.177-.385a.7.7 0 10-.458-1.323c-.261.092-.66.222-1.145.379l-.174.055c-.29.092-.41.13-.578.206a4.122 4.122 0 00-1.276.906c-1.015 1.014-1.397 2.56-1.49 3.01a.7.7 0 00.475.808 16.75 16.75 0 005.061.781h.005zm-2.073-13.37a.708.708 0 00.704-.668.707.707 0 00-.67-.732 17.625 17.625 0 01-1.855-.174.702.702 0 00-.796.586.698.698 0 00.59.792c.61.092 1.264.152 1.995.185h.033v.011z"/><path d="M96.956 122.231a.697.697 0 00.044-1.394c-1.805-.113-2.71-.699-2.787-1.193-.071-.456.556-1.22 2.1-1.833a.697.697 0 00.392-.906.703.703 0 00-.91-.391c-2.062.814-3.174 2.062-2.967 3.347.212 1.334 1.74 2.219 4.084 2.365h.044v.005zm23.302-4.404a.698.698 0 00.682-.542.7.7 0 00-.529-.836c-5.862-1.318-11.779-1.692-17.593-1.112a53.71 53.71 0 00-4.891.716.702.702 0 00-.556.819c.076.38.441.624.823.554a54.258 54.258 0 014.766-.7c5.661-.564 11.431-.201 17.14 1.085a.766.766 0 00.153.016h.005zm8.372 3.564a.696.696 0 00.387-1.28 26.623 26.623 0 00-3.049-1.714 26.162 26.162 0 00-3.103-1.259c-.245-.081-.458-.152-.605-.195a.706.706 0 00-.878.455.699.699 0 00.458.874c.142.043.338.108.573.184a25.715 25.715 0 015.829 2.821c.12.076.251.114.382.114h.006z"/><path d="M117.908 117.984a.378.378 0 00.289-.13.383.383 0 00-.033-.542 15.205 15.205 0 00-.332-.277 7.682 7.682 0 00-1.756-1.025 7.795 7.795 0 00-1.527-.467.382.382 0 00-.453.304.38.38 0 00.306.45c.474.092.937.234 1.374.418a7.18 7.18 0 011.581.922c.126.098.229.19.3.25a.379.379 0 00.256.097h-.005zm-3.654-.114a.397.397 0 00.327-.179.382.382 0 00-.114-.531 15.624 15.624 0 00-2.1-1.123 16.007 16.007 0 00-1.439-.559.394.394 0 00-.491.244.391.391 0 00.245.489 15.538 15.538 0 013.038 1.394c.142.081.256.157.332.206a.372.372 0 00.208.059h-.006zm-4.619.006c.12 0 .234-.054.311-.158a.381.381 0 00-.082-.537c-.082-.059-.196-.146-.344-.244a10.96 10.96 0 00-3.233-1.48.385.385 0 10-.202.743 9.79 9.79 0 011.374.482 10.09 10.09 0 011.947 1.112.398.398 0 00.229.076v.006zm-8.927 14.852h.054l3.114-.429a.377.377 0 00.327-.434.382.382 0 00-.436-.325l-3.114.428a.379.379 0 00-.327.434c.027.19.191.331.382.331v-.005zm-20.025-.635a.56.56 0 00.31-.092 10.452 10.452 0 002.471-2.159c.938-1.123 1.816-2.181 1.702-3.569-.12-1.416-1.206-2.317-2.356-3.271a10.83 10.83 0 00-3.169-1.828.58.58 0 00-.747.336.575.575 0 00.338.743 9.8 9.8 0 012.83 1.633c1.042.862 1.866 1.546 1.948 2.484.076.917-.59 1.72-1.435 2.734a9.356 9.356 0 01-2.203 1.926.576.576 0 00.311 1.063zM63.51 108.47c.317 0 .6-.212.682-.532.136-.542.13-1.057-.022-1.535-.742-2.343-4.526-2.75-7.286-3.043a32.368 32.368 0 00-8.73.266.7.7 0 10.228 1.378 30.857 30.857 0 018.35-.255c2.105.228 5.633.607 6.096 2.077.071.228.071.489 0 .776a.699.699 0 00.682.868z"/><path d="M56.835 117.653a.72.72 0 00.425-.141 41.079 41.079 0 003.109-2.598c.43-.396 1.02-.938 1.74-1.714a28.008 28.008 0 001.865-2.229.842.842 0 00.07-.12c.022-.048.06-.119.11-.211.578-1.08 1.096-2.197.589-2.913-.148-.206-.497-.532-1.206-.429a.703.703 0 00-.594.792.7.7 0 00.562.586c-.066.233-.235.635-.595 1.313-.043.076-.076.146-.103.195a26.314 26.314 0 01-3.398 3.705 41.015 41.015 0 01-3.005 2.511.692.692 0 00-.13.977.706.706 0 00.556.276h.005z"/><path d="M21.863 124.439a.734.734 0 00.261-.049 15.08 15.08 0 014.047-1.003c.987-.098 1.903-.06 3.168 0 .425.022.889.038 1.402.06l1.827.065c1.494.054 1.892.07 2.579.054a34.692 34.692 0 004.52-.374c4.712-.706 9.86-2.403 10.079-2.479a67.38 67.38 0 006.92-2.778.698.698 0 00.338-.927.705.705 0 00-.932-.336 64.443 64.443 0 01-6.768 2.717c-.05.016-5.246 1.731-9.838 2.419-1.418.212-2.88.331-4.335.358-.65.011-1.004 0-2.509-.054l-1.832-.065a67.714 67.714 0 01-1.391-.06c-1.325-.059-2.285-.103-3.37.006a16.352 16.352 0 00-4.428 1.096.696.696 0 00.262 1.345v.005zM.704 121.7a.735.735 0 00.3-.065c.441-.212.905-.402 1.368-.564 1.538-.548 2.896-.733 4.728-.868 3.73-.277 7.652-.223 9.124-.103.224.016.763.065 1.483.038a12.77 12.77 0 001.865-.206.602.602 0 00.142-.044 10.88 10.88 0 002.694-1.6l.07-.054a114.357 114.357 0 017.98-5.571c2.502-1.595 4.482-2.853 7.22-4.16a50.31 50.31 0 019.08-3.293.696.696 0 00.501-.852.701.701 0 00-.856-.499 51.475 51.475 0 00-9.336 3.385c-2.814 1.345-4.827 2.62-7.368 4.242a114.567 114.567 0 00-8.076 5.641l-.088.065c-.218.169-.72.57-1.434.96a9.726 9.726 0 01-.861.418 11.003 11.003 0 01-2.88.136c-1.832-.152-5.917-.152-9.363.103-1.953.146-3.409.342-5.1.944-.512.179-1.014.39-1.499.618a.702.702 0 00-.333.933.7.7 0 00.633.396h.006zm8.071 15.85a.694.694 0 00.49-.201l6.064-5.88a62.609 62.609 0 005.203-6.357.697.697 0 10-1.14-.808 63.968 63.968 0 01-2.072 2.739 62.228 62.228 0 01-2.989 3.455l-6.036 5.858a.7.7 0 00.49 1.199l-.01-.005z"/><path d="M8.774 137.55a.703.703 0 00.66-.461 19.067 19.067 0 001.15-6.276c.023-1.769.034-3.163-.763-4.687-.905-1.725-2.3-2.576-4.068-3.65l-.152-.093a19.119 19.119 0 00-4.712-2.05.7.7 0 00-.867.477c-.11.369.109.76.48.863a17.494 17.494 0 014.362 1.898l.153.093c1.647 1.003 2.836 1.725 3.556 3.108.638 1.215.621 2.332.605 4.025a17.802 17.802 0 01-1.069 5.82.7.7 0 00.425.895.718.718 0 00.235.043l.005-.005zm40.214-21.377c.469 0 .976-.055 1.51-.185 1.91-.477 3.076-1.676 3.605-2.354a.697.697 0 00-.12-.982.706.706 0 00-.987.12c-.42.531-1.341 1.48-2.841 1.855-1.5.374-2.678-.055-3.452-.337-.115-.043-.207-.076-.284-.114.322-.211.917-.488 1.773-.824a18.216 18.216 0 014.586-1.139.699.699 0 10-.164-1.389c-1.74.206-3.408.619-4.946 1.232-1.652.656-3.005 1.285-2.874 2.332.077.64.764.971 1.429 1.21.595.217 1.56.569 2.77.569l-.005.006z"/><path d="M57.32 115.191a.7.7 0 00.671-.488.695.695 0 00-.458-.874A9.23 9.23 0 0154 111.806a9.071 9.071 0 01-1.407-1.649.706.706 0 00-.97-.201.698.698 0 00-.202.966c.464.7 1.009 1.34 1.62 1.904a10.665 10.665 0 004.068 2.332c.07.022.142.033.213.033zm1.533-7.459a1.354 1.354 0 001.265-1.844 1.366 1.366 0 00-1.761-.77 1.354 1.354 0 00-.775 1.752 1.364 1.364 0 001.265.862h.006zm.044-1.367c.01.022 0 .049-.028.055-.016.005-.049-.006-.054-.027l.082-.033v.005zm0 0l-.082.033s0-.049.027-.054c.022-.006.05.005.055.027v-.006zM43.48 125.443c.452 0 .867-.076 1.069-.12.697-.151 1.39-.352 2.056-.602a15.46 15.46 0 002.65-1.274c3.054-1.839 4.64-3.212 7.275-5.479a.695.695 0 00.07-.987.704.704 0 00-.992-.071c-2.667 2.295-4.134 3.564-7.084 5.343a14.25 14.25 0 01-2.41 1.161 14.9 14.9 0 01-1.87.548c-.394.087-.78.098-1.015.07.163-.33.649-.992 1.745-2.034a.698.698 0 00.022-.987.708.708 0 00-.993-.022c-2.47 2.349-2.443 3.25-2.089 3.819.317.505.966.64 1.555.64l.01-.005zm-16.17 3.2h.033a16.83 16.83 0 005.72-1.296 16.85 16.85 0 005.934-4.231.7.7 0 10-1.047-.933 15.514 15.514 0 01-5.437 3.878 15.234 15.234 0 01-4.57 1.139c-.022-.537.01-1.291.294-1.904.104-.222.257-.553.579-.873.098-.092.174-.152.349-.288l.147-.113c.414-.32.747-.592.965-.771a.694.694 0 00.098-.981.703.703 0 00-.987-.098c-.213.173-.54.439-.943.748l-.142.114a5.1 5.1 0 00-.469.391c-.513.499-.758 1.036-.878 1.291-.594 1.296-.415 2.88-.344 3.336a.701.701 0 00.693.591h.005zm-3.686-12.291c.049 0 .098 0 .147-.017.6-.124 1.238-.298 1.936-.52a.7.7 0 10-.43-1.329c-.655.206-1.244.368-1.8.482a.699.699 0 00.147 1.384z"/><path d="M21.66 116.677c.644 0 1.37-.114 2.166-.353a.697.697 0 10-.404-1.334c-1.734.515-2.787.282-3.032-.152-.229-.401.093-1.34 1.325-2.441a.699.699 0 00.055-.987.709.709 0 00-.993-.054c-1.647 1.475-2.252 3.032-1.608 4.166.43.759 1.314 1.155 2.492 1.155zm1.32-5.207a.698.698 0 00.366-.103 53.032 53.032 0 014.22-2.306c5.11-2.489 10.64-4.149 16.448-4.925a.695.695 0 00.6-.786.7.7 0 00-.79-.597c-5.956.797-11.633 2.5-16.879 5.055a51.618 51.618 0 00-4.335 2.371.695.695 0 00-.235.96.702.702 0 00.6.336l.006-.005zm30.038-6.889c.321 0 .61-.217.681-.543a.7.7 0 00-.529-.835 27.53 27.53 0 00-3.457-.553c-1.107-.103-2.23-.141-3.348-.103-.262.005-.48.016-.639.027a.703.703 0 00-.665.732.704.704 0 00.736.662l.606-.027a24.69 24.69 0 013.174.103 25.43 25.43 0 013.277.521c.055.01.104.016.158.016h.006z"/><path d="M41.888 105.085a.384.384 0 00.136-.743 7.561 7.561 0 00-2.416-.493 7.867 7.867 0 00-1.598.092.385.385 0 00-.321.439.39.39 0 00.441.32 7.048 7.048 0 013.24.239c.152.049.278.097.365.13a.413.413 0 00.136.027l.017-.011zm-3.469 1.161a.384.384 0 00.082-.759c-.093-.022-.235-.049-.404-.082a16.5 16.5 0 00-3.506-.271.388.388 0 00-.377.396c.006.212.197.364.399.374.485-.016.976-.005 1.472.022a14.833 14.833 0 012.247.309.383.383 0 00.082.011h.005zm-4.324 1.606a.385.385 0 00.109-.754c-.099-.027-.235-.065-.41-.109a10.346 10.346 0 00-1.979-.287 10.736 10.736 0 00-1.565.027.38.38 0 00-.349.418.389.389 0 00.42.347 9.96 9.96 0 011.456-.022 9.822 9.822 0 011.838.271c.158.038.289.076.376.098a.37.37 0 00.11.016l-.006-.005zm-3.164 17.016c.06 0 .126-.017.186-.049l2.765-1.481a.39.39 0 00.158-.521.394.394 0 00-.524-.157l-2.765 1.481a.39.39 0 00-.158.521c.071.13.202.2.338.2v.006zm-19.065 6.362a.575.575 0 00.464-.227c.67-.879 1.2-1.85 1.56-2.881.485-1.372.938-2.674.343-3.932-.61-1.286-1.941-1.758-3.354-2.251a11.01 11.01 0 00-3.61-.619.573.573 0 00-.578.575c0 .32.256.575.578.581a9.66 9.66 0 013.223.553c1.282.45 2.29.803 2.694 1.654.393.836.05 1.817-.387 3.065a9.323 9.323 0 01-1.39 2.566.576.576 0 00.457.927v-.011zm129.769-69.713c.246 0 .491-.12.638-.336.426-.613.655-1.259.687-1.92.169-3.298-4.526-5.63-7.951-7.334-3.583-1.78-7.465-3.081-11.534-3.867a.77.77 0 00-.905.607.766.766 0 00.611.9c3.932.76 7.684 2.018 11.136 3.732 2.699 1.346 7.215 3.591 7.1 5.886-.016.369-.158.748-.42 1.128a.764.764 0 00.202 1.069.755.755 0 00.436.135z"/><path d="M128.373 70.332a.757.757 0 00.223-.033 59.684 59.684 0 005.334-1.893c.752-.31 1.783-.732 3.108-1.4a38.964 38.964 0 003.529-2.012c.043-.027.081-.06.12-.092.054-.054.147-.136.256-.233 1.238-1.096 2.421-2.257 2.138-3.325-.077-.293-.339-.814-1.211-.998a.771.771 0 00-.916.59.766.766 0 00.556.901c-.147.271-.567.765-1.592 1.682-.099.087-.18.163-.246.217a37.892 37.892 0 01-3.326 1.893 39.325 39.325 0 01-3 1.35 58.11 58.11 0 01-5.191 1.845.767.767 0 00-.513.96.78.78 0 00.742.548h-.011z"/><path d="M119.849 70.885c2.596 0 5.208-.109 7.798-.326a.768.768 0 10-.13-1.53c-3.409.288-6.85.38-10.237.283-.07 0-7.749-.277-14.129-1.606a46.608 46.608 0 01-5.89-1.643c-.861-.304-1.325-.494-3.277-1.297l-2.367-.97c-.66-.272-1.249-.521-1.794-.75-1.707-.72-2.94-1.236-4.407-1.621-1.996-.52-4.106-.754-6.287-.705a.77.77 0 00-.753.786c.01.423.382.749.79.749a21.21 21.21 0 015.858.656c1.358.353 2.546.857 4.193 1.546.546.233 1.14.483 1.805.754l2.367.971c1.93.797 2.449 1.009 3.354 1.324a47.65 47.65 0 006.091 1.697c6.517 1.356 14.321 1.633 14.403 1.638a83.47 83.47 0 002.617.038l-.005.006zM78.18 55.187h.032c.546-.022 1.091-.07 1.625-.152a15.22 15.22 0 002.645-.63l.12-.037a160.25 160.25 0 0113.22-3.445c4.073-.878 7.296-1.567 11.539-1.958a70.51 70.51 0 0113.573.087.77.77 0 10.164-1.53 72.328 72.328 0 00-13.874-.092c-4.335.396-7.596 1.096-11.724 1.986-4.472.96-8.966 2.131-13.35 3.477l-.142.043c-.371.12-1.243.401-2.389.57a13.35 13.35 0 01-1.385.13 15.466 15.466 0 01-2.209-.554c-.861-.287-1.477-.575-1.712-.683-2.318-1.08-7.667-3.065-12.303-4.4-2.612-.753-4.608-1.193-7.095-1.225a22.19 22.19 0 00-2.252.081.771.771 0 10.136 1.535c.693-.06 1.397-.081 2.1-.076 2.307.033 4.2.45 6.686 1.167 5.044 1.453 10.176 3.428 12.057 4.301.279.13.955.445 1.904.76.823.27 1.668.482 2.52.629.043.005.086.01.13.01l-.016.006zM55.548 73.114a.78.78 0 00.311-.065l10.842-4.773a89.22 89.22 0 005.77-3.162 90.75 90.75 0 004.144-2.642.765.765 0 00.202-1.069.77.77 0 00-1.075-.2 87.525 87.525 0 01-4.073 2.592 85.89 85.89 0 01-5.634 3.092l-10.803 4.757a.767.767 0 00.316 1.47z"/><path d="M55.548 73.114a.773.773 0 00.59-.27c1.968-2.322 3.5-4.883 4.553-7.611.883-2.284 1.576-4.085 1.287-6.423-.333-2.647-1.734-4.42-3.507-6.666l-.152-.195a26.347 26.347 0 00-5.138-4.936.776.776 0 00-1.08.162.767.767 0 00.164 1.074 24.841 24.841 0 014.837 4.649l.153.195c1.69 2.137 2.912 3.683 3.19 5.907.246 1.953-.327 3.434-1.194 5.68-.992 2.57-2.438 4.984-4.297 7.17a.77.77 0 00.589 1.264h.005zm65.975-8.049c2.203 0 3.905-.825 4.783-1.362a.765.765 0 00.251-1.058.769.769 0 00-1.064-.25c-.834.51-2.563 1.33-4.772 1.086-2.214-.244-3.577-1.405-4.482-2.17a5.116 5.116 0 01-.567-.542c.365-.141 1.216-.282 3.108-.331a25.743 25.743 0 016.637.737.768.768 0 10.365-1.491 27.172 27.172 0 00-7.04-.781c-2.312.054-4.412.211-4.723 1.508-.147.618.202 1.22 1.211 2.077.981.836 2.628 2.23 5.317 2.528.333.038.66.054.971.054l.005-.005z"/><path d="M130.222 67.338a.774.774 0 00.61-.299.766.766 0 00-.136-1.08 13.063 13.063 0 01-3.703-4.436 12.834 12.834 0 01-1.052-2.892.774.774 0 00-.927-.575.768.768 0 00-.578.923 14.254 14.254 0 001.177 3.238c.977 1.931 2.367 3.596 4.134 4.958a.773.773 0 00.475.163zm5.988-8.988h.027a1.688 1.688 0 001.668-1.71 1.686 1.686 0 00-1.695-1.66h-.022a1.689 1.689 0 00-1.669 1.71c.011.922.769 1.66 1.696 1.66h-.005zm0-1.834c.081 0 .147.065.147.146a.13.13 0 01-.044.103.14.14 0 01-.103.044.158.158 0 01-.153-.147c0-.081.065-.146.147-.151l.006.005zm-25.043 18.063c1.353 0 2.711-.13 4.041-.38 4.892-.933 7.64-1.953 12.199-3.65a.768.768 0 00.453-.988.776.776 0 00-.992-.45c-4.636 1.725-7.188 2.674-11.949 3.58a20.23 20.23 0 01-3.746.353h-.022c-.916 0-1.843-.065-2.754-.195-.769-.109-1.429-.375-1.663-.554.223-.293 1.112-1.025 3.533-2.061a.765.765 0 00.404-1.009.772.772 0 00-1.014-.401c-4.281 1.828-4.652 2.972-4.494 3.764.267 1.335 2.563 1.725 3.016 1.79a22.68 22.68 0 002.966.212h.028l-.006-.011zM91.028 71.47c.349 0 .698-.005 1.047-.02a23.5 23.5 0 009.772-2.648.761.761 0 00.322-1.036.77.77 0 00-1.041-.32 22.027 22.027 0 01-9.124 2.473 21.714 21.714 0 01-6.833-.786c.223-.743.665-1.882 1.434-2.653.24-.238.633-.634 1.254-.905.164-.071.29-.114.628-.217l.24-.076a72.682 72.682 0 001.641-.543.768.768 0 00.48-.976.777.777 0 00-.982-.477c-.37.124-.921.314-1.609.531l-.24.076a7.867 7.867 0 00-.79.277c-.884.39-1.429.933-1.718 1.22-1.38 1.378-1.903 3.493-2.029 4.106a.77.77 0 00.524.89 23.288 23.288 0 007.018 1.09l.006-.005zm-2.901-18.718c.409 0 .752-.32.774-.733a.77.77 0 00-.736-.803 26.845 26.845 0 01-2.618-.238.767.767 0 10-.23 1.519c.847.124 1.757.211 2.777.255h.038-.005z"/><path d="M85.433 52.502a.772.772 0 00.05-1.54c-2.657-.169-3.971-1.047-4.097-1.845-.109-.689.627-1.828 3.07-2.788a.771.771 0 00.437-.998.774.774 0 00-1.004-.434c-2.786 1.096-4.291 2.766-4.024 4.459.278 1.763 2.345 2.934 5.524 3.14h.049l-.005.006zm32.622-6.168a.774.774 0 00.753-.596.77.77 0 00-.584-.917c-8.186-1.839-16.447-2.36-24.562-1.551-2.28.228-4.576.564-6.833.998a.767.767 0 00-.611.9.77.77 0 00.905.608 73.378 73.378 0 016.692-.982c7.945-.792 16.043-.282 24.065 1.524.06.011.115.022.169.022l.006-.006zm11.719 4.991a.782.782 0 00.649-.347.762.762 0 00-.224-1.064 37.794 37.794 0 00-4.242-2.386 37.277 37.277 0 00-5.165-2.023.767.767 0 10-.458 1.464c.197.06.475.152.807.26a36.05 36.05 0 018.208 3.971.757.757 0 00.42.125h.005z"/><path d="M114.958 47.376a.583.583 0 00.436-.195.574.574 0 00-.049-.814 10.739 10.739 0 00-2.934-1.833 11.18 11.18 0 00-2.149-.657.581.581 0 00-.682.456.58.58 0 00.459.678 9.815 9.815 0 014.122 1.877c.18.14.322.26.42.347a.572.572 0 00.382.146l-.005-.005zm-5.312-.732a.576.576 0 00.316-1.063 21.857 21.857 0 00-2.95-1.578 21.78 21.78 0 00-2.018-.782.58.58 0 10-.371 1.096c.644.211 1.287.466 1.914.743a20.883 20.883 0 012.792 1.497c.098.06.208.092.311.092l.006-.005zm-6.462.01a.578.578 0 00.349-1.041l-.48-.342a15.424 15.424 0 00-4.537-2.072.586.586 0 00-.715.402.578.578 0 00.404.71c.649.18 1.292.407 1.914.673.807.347 1.57.77 2.274 1.242.191.125.338.239.442.315a.576.576 0 00.343.114h.006zM90.69 67.446s.054 0 .081-.005l4.358-.603a.58.58 0 00.496-.65.582.582 0 00-.654-.494l-4.358.602a.58.58 0 00-.496.65.58.58 0 00.573.5zm-28.042-1.161a.56.56 0 00.311-.092 14.537 14.537 0 003.409-2.978c1.276-1.535 2.481-2.983 2.328-4.828-.158-1.887-1.647-3.119-3.217-4.426a15.005 15.005 0 00-4.363-2.522.58.58 0 00-.747.336.575.575 0 00.338.743 13.992 13.992 0 014.03 2.327c1.5 1.248 2.683 2.23 2.803 3.635.115 1.377-.845 2.533-2.061 3.997a13.282 13.282 0 01-3.136 2.74.576.576 0 00.311 1.063l-.006.005zm171.946 11.868a.698.698 0 00.654-.45c.202-.52.251-1.036.159-1.53-.464-2.413-4.172-3.254-6.877-3.872a32.446 32.446 0 00-8.704-.754.704.704 0 00-.671.732c.017.385.344.673.737.667a30.951 30.951 0 018.322.716c2.066.472 5.524 1.259 5.813 2.772.043.233.011.494-.093.77a.698.698 0 00.66.944v.005z"/><path d="M226.883 86.496a.7.7 0 00.355-.097 42.964 42.964 0 003.392-2.219c.469-.342 1.118-.808 1.93-1.503a28.17 28.17 0 002.116-1.996.801.801 0 00.087-.108c.028-.044.077-.114.137-.195.698-1.01 1.347-2.056.927-2.821-.12-.222-.426-.591-1.146-.564a.698.698 0 00-.681.716.7.7 0 00.491.645c-.093.228-.306.602-.742 1.232l-.126.184a25.33 25.33 0 01-1.968 1.85 28.192 28.192 0 01-1.843 1.432 41.586 41.586 0 01-3.278 2.142.697.697 0 00.36 1.296l-.011.006z"/><path d="M208.031 90.011c.36 0 .714-.005 1.069-.016 4.766-.152 10.072-1.237 10.296-1.286a66.324 66.324 0 007.198-1.953.697.697 0 00.442-.884.702.702 0 00-.889-.439 64.954 64.954 0 01-7.04 1.91c-.049.01-5.416 1.106-10.056 1.258-1.435.049-2.902 0-4.347-.152-.649-.065-1.003-.12-2.497-.353l-1.8-.276c-.502-.076-.954-.152-1.369-.217-1.309-.212-2.257-.37-3.348-.385a16.55 16.55 0 00-4.526.57.698.698 0 10.365 1.35 15.207 15.207 0 014.139-.526c.993.016 1.898.162 3.147.369.42.07.878.14 1.385.222l1.794.276c1.483.228 1.887.293 2.569.359a35.23 35.23 0 003.462.173h.006zm-19.36-5.571c.284 0 .573-.01.856-.027a.39.39 0 00.142-.027c.377-.108.753-.239 1.118-.385.867-.347 1.484-.727 1.751-.89l.071-.043c2.786-1.654 5.671-3.2 8.578-4.605 2.677-1.291 4.788-2.311 7.662-3.287a50.584 50.584 0 019.407-2.213.699.699 0 10-.191-1.384 51.19 51.19 0 00-9.674 2.273c-2.951 1.004-5.099 2.04-7.815 3.352a115.975 115.975 0 00-8.687 4.66l-.093.054a9.79 9.79 0 01-2.443 1.101 11.07 11.07 0 01-2.874-.2c-1.8-.364-5.857-.841-9.309-.993-1.952-.082-3.425-.054-5.17.342-.529.119-1.052.27-1.565.439a.704.704 0 00-.442.884.71.71 0 00.889.44c.464-.158.944-.293 1.429-.402 1.593-.363 2.961-.39 4.799-.31 3.736.164 7.624.668 9.075.961.212.043.741.152 1.467.211.338.028.681.044 1.019.044v.005zm-11.856 16.214c.148 0 .3-.049.426-.147l6.713-5.137a62.642 62.642 0 003.479-3.178 67.744 67.744 0 002.438-2.533.694.694 0 00-.049-.988.704.704 0 00-.993.05 62.315 62.315 0 01-5.759 5.565l-6.685 5.115a.7.7 0 00-.131.981.701.701 0 00.556.272h.005z"/><path d="M176.81 100.654a.699.699 0 00.627-.385 19.108 19.108 0 001.887-6.097c.229-1.752.409-3.136-.207-4.747-.693-1.817-1.98-2.826-3.61-4.1l-.142-.109a19.18 19.18 0 00-4.439-2.587.694.694 0 00-.916.374.693.693 0 00.376.911 17.777 17.777 0 014.112 2.392l.142.109c1.516 1.188 2.612 2.045 3.168 3.498.491 1.28.344 2.393.126 4.069a17.696 17.696 0 01-1.751 5.652.695.695 0 00.316.938.71.71 0 00.311.076v.006zm43.093-16.501c.256 0 .523-.017.796-.049 1.952-.25 3.256-1.307 3.861-1.915a.692.692 0 00-.006-.987.702.702 0 00-.992.005c-.48.483-1.505 1.319-3.043 1.514-1.533.2-2.65-.364-3.392-.738-.109-.054-.196-.103-.267-.14.343-.175.965-.375 1.854-.614a18.179 18.179 0 014.69-.597.703.703 0 00.703-.7.703.703 0 00-.703-.699c-1.756 0-3.452.217-5.056.645-1.717.462-3.135.923-3.13 1.986 0 .64.616 1.036 1.276 1.367.676.336 1.849.927 3.409.927v-.005z"/><path d="M227.657 84.11a.696.696 0 00.29-1.334 9.24 9.24 0 01-3.267-2.42 9.09 9.09 0 01-1.2-1.801.7.7 0 00-.943-.31.694.694 0 00-.311.94c.376.748.845 1.447 1.385 2.082a10.515 10.515 0 003.763 2.788c.093.044.191.06.289.06l-.006-.006zm2.476-7.226a1.352 1.352 0 001.32-1.692 1.319 1.319 0 00-.627-.825 1.375 1.375 0 00-1.031-.146c-.354.092-.649.31-.834.624a1.344 1.344 0 00.48 1.85c.212.124.447.19.687.19h.005zm0-1.394s.039.017.044.033c0 .021-.011.049-.033.054a.045.045 0 01-.054-.032c-.006-.022.005-.05.032-.055h.011zm-16.965 17.212c.223 0 .409-.017.529-.028a15.48 15.48 0 002.116-.358 15.92 15.92 0 002.781-.954c3.245-1.47 4.984-2.647 7.869-4.595a.695.695 0 00.185-.97.704.704 0 00-.976-.185c-2.917 1.969-4.526 3.054-7.662 4.48a13.95 13.95 0 01-2.53.868c-.627.152-1.276.26-1.92.326a3.619 3.619 0 01-1.014-.044c.202-.309.763-.91 1.974-1.817a.697.697 0 00.142-.976.707.707 0 00-.982-.141c-2.732 2.04-2.808 2.94-2.525 3.547.333.716 1.336.847 2.018.847h-.005zm-15.777 1.307a16.76 16.76 0 004.663-.662 16.896 16.896 0 006.391-3.51.698.698 0 00.06-.987.707.707 0 00-.992-.06 15.544 15.544 0 01-5.857 3.217c-1.522.44-3.092.64-4.674.602.038-.531.164-1.285.513-1.86.125-.206.316-.52.682-.797.109-.082.19-.13.381-.245l.158-.092a63.4 63.4 0 001.053-.65.698.698 0 00.213-.966.706.706 0 00-.971-.212 40.83 40.83 0 01-1.025.635l-.153.092c-.256.157-.365.222-.513.33a4.018 4.018 0 00-1.025 1.183c-.747 1.226-.747 2.816-.731 3.271a.701.701 0 00.655.673c.392.027.78.038 1.172.038zm-3.338-12.677h.066a20.37 20.37 0 001.985-.287.701.701 0 00.556-.82.707.707 0 00-.823-.553c-.677.13-1.276.217-1.844.272a.7.7 0 00.06 1.394v-.006z"/><path d="M192.696 81.462a8.68 8.68 0 001.483-.135.697.697 0 10-.245-1.372c-1.783.314-2.798-.044-2.994-.5-.18-.423.245-1.318 1.603-2.272a.693.693 0 00.169-.971.702.702 0 00-.976-.169c-1.81 1.275-2.59 2.75-2.088 3.95.403.96 1.505 1.475 3.048 1.475v-.006zm1.298-5.05a.72.72 0 00.294-.065 51.079 51.079 0 014.467-1.795c5.366-1.877 11.059-2.88 16.916-2.978a.704.704 0 00.693-.71.711.711 0 00-.715-.69c-6.009.098-11.85 1.129-17.358 3.054a53.842 53.842 0 00-4.586 1.845.695.695 0 00-.344.927c.12.255.371.407.638.407l-.005.005zm30.637-3.341a.696.696 0 00.66-.466.692.692 0 00-.426-.89 27.12 27.12 0 00-7.318-1.492.697.697 0 00-.747.651.703.703 0 00.654.743c.147.011.355.022.6.044 1.053.092 2.111.25 3.141.472 1.08.227 2.154.531 3.196.9a.703.703 0 00.234.038h.006z"/><path d="M213.484 72.274a.397.397 0 00.344-.207.386.386 0 00-.164-.52 7.726 7.726 0 00-2.345-.776 7.838 7.838 0 00-1.598-.092.392.392 0 00-.371.401.389.389 0 00.404.37 7 7 0 013.545.776c.06.031.12.042.18.042l.005.006zm-3.583.743a.383.383 0 00.125-.749c-.092-.032-.229-.076-.392-.13a16.494 16.494 0 00-3.452-.678.393.393 0 00-.42.353.392.392 0 00.354.417 15.96 15.96 0 013.283.64c.158.05.284.093.371.12a.342.342 0 00.126.021l.005.006zm-4.482 1.095a.379.379 0 00.354-.233.386.386 0 00-.207-.504 11.356 11.356 0 00-2.323-.673 11.695 11.695 0 00-1.56-.157.391.391 0 00-.398.374.387.387 0 00.376.396 10.29 10.29 0 013.245.63c.153.053.278.108.36.14a.36.36 0 00.147.033l.006-.006zm-5.148 16.528c.049 0 .098-.01.142-.027l2.923-1.15a.389.389 0 00.218-.499.392.392 0 00-.502-.217l-2.923 1.15a.388.388 0 00-.218.5c.06.151.207.243.36.243zm-19.655 4.096c.153 0 .306-.06.42-.18a10.373 10.373 0 001.887-2.679c.644-1.307 1.249-2.544.802-3.867-.453-1.351-1.723-1.97-3.07-2.626a11.08 11.08 0 00-3.512-1.036.574.574 0 00-.644.505.575.575 0 00.507.64 9.82 9.82 0 013.136.922c1.216.596 2.181 1.063 2.481 1.958.295.873-.163 1.812-.747 2.994a9.254 9.254 0 01-1.68 2.387.578.578 0 00.42.976v.006zm103.135-81.962a.75.75 0 00.321-.076 30.798 30.798 0 017.87-2.793c2.077-.429 5.546-1.145 6.446.114.136.195.218.444.239.737a.709.709 0 00.748.651.7.7 0 00.654-.743 2.795 2.795 0 00-.496-1.453c-1.429-2.002-5.154-1.232-7.875-.673a32.287 32.287 0 00-8.229 2.924.693.693 0 00-.3.938c.125.239.371.38.622.38v-.006z"/><path d="M295.808 22.186a.7.7 0 00.578-.299c.78-1.112 1.5-2.262 2.154-3.423.284-.504.677-1.198 1.124-2.164a28.72 28.72 0 001.09-2.696.504.504 0 00.033-.135c.006-.055.022-.136.038-.24.213-1.203.366-2.424-.338-2.95-.202-.152-.638-.358-1.281-.038a.697.697 0 00.392 1.318c.006.244-.027.678-.158 1.427-.016.087-.027.163-.038.222a26.413 26.413 0 01-1.014 2.5c-.426.917-.802 1.58-1.075 2.068a41.57 41.57 0 01-2.083 3.308.694.694 0 00.175.971c.12.087.261.125.398.125l.005.006z"/><path d="M264.62 39.326a.697.697 0 00.447-.162 15.19 15.19 0 013.54-2.192c.905-.396 1.788-.635 3.015-.965.409-.114.857-.234 1.353-.375l1.756-.493c1.44-.407 1.827-.516 2.481-.738a34.604 34.604 0 004.188-1.736c4.27-2.11 8.639-5.3 8.824-5.435a66.8 66.8 0 005.726-4.757.693.693 0 00.033-.987.703.703 0 00-.993-.033 65.81 65.81 0 01-5.6 4.654c-.044.033-4.461 3.25-8.617 5.305a33.932 33.932 0 01-4.013 1.666c-.617.206-.96.303-2.405.71l-1.756.494c-.491.14-.933.26-1.342.369-1.281.347-2.203.602-3.207 1.036a16.336 16.336 0 00-3.871 2.392.694.694 0 00-.093.981.693.693 0 00.54.255l-.006.011zm-20.984 3.857a.71.71 0 00.48-.19c.36-.336.736-.656 1.128-.955 1.293-.987 2.531-1.578 4.232-2.267 3.469-1.4 7.21-2.55 8.649-2.886a12.4 12.4 0 003.136-1.182.568.568 0 00.12-.082c.295-.254.584-.526.856-.813a10.836 10.836 0 001.216-1.535l.049-.07a113.02 113.02 0 015.874-7.741c1.898-2.284 3.386-4.085 5.584-6.162a49.884 49.884 0 017.624-5.907.7.7 0 00.218-.966.708.708 0 00-.971-.217 51.217 51.217 0 00-7.842 6.075c-2.257 2.138-3.779 3.966-5.698 6.282a112.194 112.194 0 00-5.95 7.843l-.06.087c-.153.228-.513.76-1.069 1.35a8.802 8.802 0 01-.693.663c-.463.25-.954.466-1.45.645-.606.217-1.069.325-1.249.369-1.789.418-5.677 1.66-8.878 2.956-1.811.732-3.136 1.367-4.559 2.452-.431.33-.845.683-1.238 1.047a.692.692 0 00-.027.987.689.689 0 00.512.217h.006zM256.211 55.8a.704.704 0 00.622-.374l3.953-7.448a64.228 64.228 0 001.833-4.328 56.941 56.941 0 001.15-3.315.694.694 0 00-.458-.873.7.7 0 00-.878.456 61.645 61.645 0 01-2.907 7.442l-3.937 7.415a.697.697 0 00.295.944.71.71 0 00.327.081z"/><path d="M256.217 55.8a.706.706 0 00.703-.678 19.116 19.116 0 00-.84-6.325c-.529-1.687-.943-3.021-2.176-4.225-1.39-1.367-2.983-1.747-5-2.23l-.175-.043a19.151 19.151 0 00-5.115-.51.695.695 0 00-.676.721c.01.386.327.695.725.673a17.697 17.697 0 014.739.472l.174.043c1.876.45 3.229.776 4.347 1.872.981.96 1.314 2.028 1.816 3.645.583 1.86.845 3.835.774 5.863a.7.7 0 00.682.722h.022zm29.682-32.34c.922 0 2.236-.125 3.578-.96 1.669-1.036 2.41-2.538 2.705-3.341a.703.703 0 00-1.32-.477c-.234.634-.818 1.822-2.132 2.636-1.309.813-2.563.764-3.392.732-.12 0-.218-.011-.3-.022.245-.298.72-.743 1.429-1.329a17.914 17.914 0 014.013-2.484.7.7 0 10-.589-1.27 19.544 19.544 0 00-4.324 2.68c-1.369 1.128-2.465 2.143-2.018 3.103.273.586 1.025.689 1.734.716.175.005.382.016.611.016h.005z"/><path d="M295.421 19.69h.093a.699.699 0 10-.006-1.4h-.087a9.205 9.205 0 01-3.904-.845 9.375 9.375 0 01-1.849-1.14.699.699 0 00-.987.109.695.695 0 00.109.982c.66.526 1.374.965 2.132 1.318a10.67 10.67 0 004.494.976h.005zm-.954-7.534c.3 0 .605-.098.856-.304a1.345 1.345 0 00.196-1.904 1.355 1.355 0 00-.916-.493 1.337 1.337 0 00-.998.298 1.345 1.345 0 00-.196 1.904c.267.33.66.499 1.058.499zm0-1.394s.027 0 .032.016c.011.016.011.049-.005.06-.016.016-.049.01-.06-.006-.011-.016-.011-.048.005-.06a.045.045 0 01.028-.01zm-9.582 23.032c.725 0 1.521-.418 1.816-.592a15.561 15.561 0 003.905-3.222c2.334-2.685 3.424-4.47 5.229-7.436a.7.7 0 00-.234-.96.707.707 0 00-.965.233c-1.827 3-2.836 4.654-5.094 7.247a14.037 14.037 0 01-3.55 2.929c-.349.2-.709.33-.943.38.054-.364.31-1.145 1.036-2.469a.698.698 0 00-.284-.949.705.705 0 00-.954.282c-1.631 2.989-1.325 3.835-.813 4.274.24.201.535.277.845.277l.006.006zm-13.781 7.865a.784.784 0 00.246-.044 16.583 16.583 0 005.039-2.983 16.787 16.787 0 004.341-5.837.703.703 0 00-1.282-.57 15.35 15.35 0 01-3.975 5.35 15.273 15.273 0 01-3.998 2.484c-.185-.505-.387-1.232-.311-1.904.028-.239.071-.602.284-1.01.065-.119.12-.195.245-.379l.104-.152c.295-.434.529-.792.682-1.03a.698.698 0 00-.213-.966.707.707 0 00-.971.212c-.147.233-.376.58-.665 1.003l-.104.152c-.169.25-.24.352-.321.515-.338.635-.404 1.215-.437 1.497-.163 1.416.497 2.864.704 3.277.12.244.371.385.627.385h.005zm-7.302-10.567c.12 0 .24-.027.349-.092a20.701 20.701 0 001.685-1.085.7.7 0 10-.818-1.139 18.23 18.23 0 01-1.565 1.009.698.698 0 00.349 1.307z"/><path d="M261.037 32.172c.905 0 2.002-.407 3.163-1.204a.695.695 0 00.18-.971.704.704 0 00-.976-.18c-1.489 1.02-2.563 1.123-2.929.782-.338-.315-.327-1.302.508-2.729a.695.695 0 00-.257-.954.701.701 0 00-.959.254c-1.113 1.91-1.206 3.575-.246 4.454.398.363.916.548 1.516.548zm.644-5.528a.704.704 0 00.534-.244 51.48 51.48 0 013.305-3.482c4.09-3.933 8.846-7.198 14.13-9.715a.705.705 0 00.333-.933.71.71 0 00-.938-.331c-5.421 2.576-10.302 5.934-14.501 9.97a52.761 52.761 0 00-3.392 3.58.7.7 0 00.534 1.155h-.005zm19.365-14.103a.687.687 0 00.251-.049 26.083 26.083 0 013.621-1.08 25.797 25.797 0 013.283-.504.7.7 0 10-.126-1.394 27.678 27.678 0 00-3.463.532 26.78 26.78 0 00-3.817 1.144.695.695 0 00-.404.9c.11.277.371.451.655.451z"/><path d="M274.054 15.573a.4.4 0 00.175-.043c.431-.217.878-.39 1.341-.52a7.154 7.154 0 011.816-.25c.164 0 .3 0 .388.01a.382.382 0 00.409-.363.389.389 0 00-.366-.407 7.512 7.512 0 00-2.454.266 8.156 8.156 0 00-1.489.575.384.384 0 00.175.727l.005.005zm-2.933 2.207a.372.372 0 00.131-.02c.458-.164.927-.305 1.407-.43a16.08 16.08 0 011.848-.352c.164-.022.295-.032.388-.043a.385.385 0 00.349-.418.392.392 0 00-.42-.347c-.098.01-.24.022-.409.043a16.75 16.75 0 00-1.942.37 15.08 15.08 0 00-1.478.45.386.386 0 00.131.748h-.005zm-3.627 2.832a.41.41 0 00.153-.032 10.32 10.32 0 013.212-.77c.164-.011.294-.017.387-.022a.387.387 0 00.376-.396.388.388 0 00-.398-.374c-.098 0-.245.01-.42.021a11.046 11.046 0 00-3.457.836.384.384 0 00.147.738zm5.988 16.333a.373.373 0 00.278-.12l2.176-2.256a.383.383 0 00-.011-.542.388.388 0 00-.545.01l-2.176 2.257a.382.382 0 00.011.543.39.39 0 00.267.108zm-16.24 11.89c.24 0 .463-.146.545-.385.371-1.047.567-2.126.595-3.217.032-1.459.071-2.831-.889-3.85-.976-1.037-2.389-1.075-3.888-1.118a11.015 11.015 0 00-3.627.515.578.578 0 10.354 1.101 9.846 9.846 0 013.24-.46c1.358.037 2.427.064 3.075.753.633.673.606 1.714.579 3.032a9.243 9.243 0 01-.529 2.864.576.576 0 00.545.765z"/></g><defs><clipPath id="clip0_2638_33911"><path fill="#fff" transform="matrix(-1 0 0 1 301 0)" d="M0 0h301v138H0z"/></clipPath></defs></svg>