<svg width="190" height="198" fill="none" xmlns="http://www.w3.org/2000/svg"><path d="M37.582 52.166l-.005-.003h-.001l.004.004h.002z" fill="#E39191"/><path d="M83.706 82.317a2.144 2.144 0 00-.697-.68l-.005-.004a1719.931 1719.931 0 01-3.575-2.245l-.952-.597.081-.209 1.06-2.768.456-1.195.143-.372c.017-.043.032-.078.041-.104l.008-.023-.003.003c.003-.002.003-.004.003-.006v.001l.005-.009h-.003a1.84 1.84 0 00-.113-1.6 2.13 2.13 0 00-.804-.79l.002.002a6.326 6.326 0 00-.476-.237 17.534 17.534 0 00-1.146-.451c-1.594-.573-4.205-1.349-7.536-2.03a72.193 72.193 0 00-10.484-1.346c-1.776-4.045-3.938-7.514-5.834-10.133a46.248 46.248 0 00-2.765-3.482c-.39-.443-.736-.812-1.033-1.11a9.404 9.404 0 00-.42-.4 5.048 5.048 0 00-.4-.332v-.002a2.338 2.338 0 00-.696-.35 2.492 2.492 0 00-.741-.11 2.451 2.451 0 00-1.391.422h-.003l-.272.183c-.535.36-1.718 1.15-2.767 1.852l-1.375.921-.014.01a4339.155 4339.155 0 00-3.95-2.645c-.147-.099-.268-.177-.351-.236-.044-.027-.076-.05-.1-.065l-.02-.013-.005-.003h.002l-.002-.002-.005-.004h-.003a2.459 2.459 0 00-1.388-.42 2.467 2.467 0 00-.741.11 2.3 2.3 0 00-.702.355l.005-.004-.01.007a4.605 4.605 0 00-.39.325c-.245.22-.518.493-.837.833-1.11 1.18-2.755 3.164-4.521 5.791a55.406 55.406 0 00-4.694 8.5 72.041 72.041 0 00-12.566 1.806c-1.83.431-3.368.874-4.546 1.26-.589.192-1.09.372-1.499.533a9.525 9.525 0 00-.554.23 5.163 5.163 0 00-.474.235c-.35.195-.638.485-.807.791a1.833 1.833 0 00-.113 1.599l.003.008c.005.01.012.034.027.07.135.348.633 1.653 1.096 2.867l.623 1.627c.015.04.03.074.042.108l-.203.127c-.71.448-1.78 1.12-2.677 1.684l-1.158.727-.358.225-.103.063-.022.014-.003.002-.007.005v.001c-.29.18-.523.405-.697.68A1.867 1.867 0 000 83.31c-.002.243.052.503.157.741a4.9 4.9 0 00.228.437c.16.275.363.591.623.968.908 1.311 2.503 3.329 4.745 5.647a60.224 60.224 0 007.586 6.628c-1.602 5.507-2.012 10.527-2.012 13.847 0 .987.037 1.824.088 2.489.03.334.062.624.099.877.039.257.073.462.14.693l-.003-.002c.069.244.194.476.353.674.238.299.547.51.862.645.28.12.569.18.87.195v.002c.052.003.084.003.12.003h.07l.08-.002 3.396-.046c.716-.008 1.41-.018 1.924-.025l.127-.002c.022.067.047.137.074.211.255.742.642 1.857.964 2.795a4192.326 4192.326 0 01.584 1.688l.01.029-.003-.009c.13.391.368.727.731 1.001a2.394 2.394 0 001.556.464l.032-.001a5.92 5.92 0 00.532-.056c.34-.049.738-.123 1.22-.227 1.67-.362 4.3-1.085 7.455-2.264a65.772 65.772 0 009.394-4.389c4.1 2.337 8.128 3.995 11.38 5.1 1.77.6 3.311 1.038 4.52 1.336a31.25 31.25 0 001.566.344c.218.041.415.074.599.1a5.86 5.86 0 00.674.061c.275 0 .552-.047.798-.131.37-.127.67-.326.893-.552.225-.228.385-.483.48-.773l.003-.002v-.002l.002-.007.33-.959.954-2.765c.132-.38.25-.719.343-.992l.248.004 3.275.043 1.413.02c.184.003.334.005.44.005l.122.003.03.001h.068a2.46 2.46 0 001.305-.364 2.14 2.14 0 00.55-.483c.157-.197.282-.429.35-.671a5.45 5.45 0 00.138-.691c.054-.379.101-.846.135-1.408.032-.563.054-1.22.054-1.959-.002-3.321-.412-8.342-2.016-13.85a60.29 60.29 0 008.97-8.1 46.845 46.845 0 002.838-3.438c.346-.47.633-.878.856-1.224.11-.174.209-.332.294-.479a5.2 5.2 0 00.226-.436c.106-.237.16-.497.16-.742 0-.377-.118-.716-.294-.993zm-8.472 6.552a56.31 56.31 0 01-8.01 6.848c-.624.436-.889 1.172-.675 1.852 1.764 5.537 2.208 10.738 2.208 14.01 0 .823-.03 1.516-.071 2.06l-1.85-.026-2.951-.039h-.05c-1.295.002-2.436.756-2.821 1.861v.001l-.913 2.643c-.176.511-.35 1.02-.503 1.46a32.42 32.42 0 01-1.379-.339c-3.42-.907-9.322-2.932-15.13-6.413a2.16 2.16 0 00-2.18 0c-4.164 2.494-8.372 4.243-11.684 5.365a51.509 51.509 0 01-4.169 1.234c-.237.058-.453.108-.657.153-.545-1.586-1.413-4.103-1.416-4.103-.383-1.109-1.53-1.863-2.826-1.863l-.061.001h-.008c-.194.004-1.626.022-3.071.041-.597.009-1.193.018-1.708.024a29.111 29.111 0 01-.066-2.061c-.003-3.272.441-8.473 2.205-14.01.216-.681-.051-1.417-.674-1.853a56.39 56.39 0 01-9.353-8.28 43.287 43.287 0 01-2.62-3.172c-.137-.187-.26-.356-.37-.513l1.516-.954L8.36 81.28h.002c.8-.505 1.254-1.316 1.254-2.159 0-.284-.052-.574-.16-.854l-1-2.617c-.192-.501-.386-1.003-.55-1.437 1.4-.492 3.81-1.201 6.842-1.815a67.094 67.094 0 0110.987-1.306c.79-.026 1.491-.48 1.764-1.145 1.73-4.207 3.974-7.853 5.91-10.523a43.23 43.23 0 012.551-3.218c.153-.17.293-.326.425-.468l1.477.992 2.362 1.58c.523.35 1.154.528 1.774.526a3.195 3.195 0 001.774-.526l2.478-1.66 1.362-.912c.964 1.042 2.478 2.876 4.082 5.276 1.647 2.457 3.398 5.508 4.804 8.933.272.665.972 1.12 1.764 1.146 5.017.168 9.583.94 13.013 1.75 1.715.403 3.145.816 4.198 1.162.225.073.429.143.615.21-.176.467-.387 1.017-.596 1.56-.48 1.26-.944 2.47-.952 2.492-.108.28-.16.57-.16.856 0 .84.455 1.652 1.252 2.157h.005l2.532 1.593c.488.308.977.613 1.398.878-.806 1.146-2.28 3.005-4.334 5.12z" fill="#E39191"/><path d="M53.202 87.276c-.947 0-1.757.502-2.13 1.223h-6.71l4.745-4.236c.832.274 1.804.119 2.476-.48.918-.82.918-2.147 0-2.966-.92-.82-2.407-.82-3.325 0-.67.598-.843 1.465-.537 2.21l-4.745 4.236V81.27c.81-.33 1.374-1.055 1.374-1.9 0-1.16-1.052-2.099-2.35-2.099s-2.35.94-2.35 2.099c0 .845.562 1.57 1.371 1.9v5.992l-4.745-4.236c.307-.745.133-1.612-.537-2.21-.917-.82-2.407-.82-3.322 0-.92.82-.92 2.147 0 2.967.67.598 1.639.753 2.473.478l4.745 4.237h-6.708c-.373-.72-1.182-1.223-2.132-1.223-1.295 0-2.35.94-2.35 2.098s1.055 2.098 2.35 2.098c.95 0 1.76-.504 2.132-1.225h6.708l-4.745 4.237c-.834-.275-1.803-.119-2.476.478-.917.82-.917 2.148 0 2.967.918.82 2.407.82 3.325 0 .67-.597.844-1.465.537-2.21l4.745-4.236v5.992c-.81.332-1.372 1.055-1.372 1.901 0 1.158 1.053 2.097 2.35 2.097 1.299 0 2.351-.939 2.351-2.097 0-.846-.564-1.57-1.374-1.901v-5.992l4.745 4.236c-.307.745-.13 1.613.54 2.21.915.82 2.404.82 3.32 0 .92-.819.92-2.148 0-2.967-.668-.597-1.64-.753-2.474-.478l-4.745-4.237h6.71c.373.72 1.183 1.225 2.13 1.225 1.298 0 2.35-.94 2.35-2.098 0-1.16-1.052-2.098-2.35-2.098zm62.38 37.89l-.005-.003h-.001l.004.003h.002z" fill="#E39191"/><path d="M161.706 155.317a2.158 2.158 0 00-.697-.68v-.001l-.005-.003a1453.106 1453.106 0 01-3.575-2.245l-.952-.597.081-.208 1.06-2.769.456-1.195.143-.372.041-.104.008-.023-.003.003c.003-.002.003-.004.003-.006v.001l.005-.009h-.003a1.826 1.826 0 00-.113-1.601 2.13 2.13 0 00-.804-.788l.002.001a6.388 6.388 0 00-.476-.237 17.254 17.254 0 00-1.146-.451c-1.594-.573-4.205-1.349-7.536-2.03a72.211 72.211 0 00-10.484-1.346c-1.776-4.045-3.938-7.515-5.834-10.133a46.484 46.484 0 00-2.765-3.482c-.39-.443-.736-.812-1.033-1.111-.15-.151-.287-.281-.419-.4a5.417 5.417 0 00-.4-.332v-.001a2.365 2.365 0 00-.697-.35 2.486 2.486 0 00-.741-.111 2.457 2.457 0 00-1.391.423v-.001h-.003c-.017.013-.12.082-.272.184l-2.767 1.852-1.374.921c-.008.004-.01.007-.015.01l-.199-.132a1759.25 1759.25 0 00-2.62-1.755c-.442-.295-.839-.562-1.131-.758-.147-.099-.268-.177-.351-.236-.044-.027-.076-.051-.101-.065l-.019-.013-.005-.003.002-.001-.002-.001-.005-.004-.003.001a2.464 2.464 0 00-1.388-.422 2.464 2.464 0 00-.741.111 2.3 2.3 0 00-.702.355l.005-.004-.01.007a4.728 4.728 0 00-.39.325c-.245.22-.518.493-.837.833-1.111 1.18-2.755 3.164-4.521 5.791a55.364 55.364 0 00-4.693 8.5 72.012 72.012 0 00-12.567 1.806c-1.83.431-3.368.874-4.546 1.26-.589.192-1.09.372-1.499.533a9.82 9.82 0 00-.554.23 5.06 5.06 0 00-.474.235 2.1 2.1 0 00-.807.791 1.832 1.832 0 00-.113 1.599l.003.008v.001c.005.01.012.033.027.069.135.348.632 1.653 1.096 2.867l.623 1.627c.015.039.03.074.042.108l-.203.127c-.71.448-1.78 1.12-2.677 1.684l-1.158.727-.358.225-.103.063-.022.014-.003.002-.007.005v.001c-.29.181-.523.405-.697.68a1.868 1.868 0 00-.292.993c-.002.243.052.503.157.741a4.9 4.9 0 00.228.437c.16.275.363.592.623.968.908 1.311 2.503 3.329 4.745 5.648a60.265 60.265 0 007.586 6.627c-1.602 5.507-2.012 10.527-2.012 13.847 0 .987.037 1.824.088 2.489.03.334.062.624.099.877.039.257.073.462.14.693l-.003-.002c.069.244.194.476.353.674.238.299.547.51.861.645.28.12.57.18.872.195v.002c.051.003.083.003.12.003h.069l.08-.002 3.396-.046c.716-.008 1.41-.018 1.924-.025l.127-.002c.022.067.047.137.074.211.255.742.642 1.857.964 2.795a4192.326 4192.326 0 01.584 1.688l.01.029-.003-.009c.13.391.368.727.731 1.001a2.393 2.393 0 001.556.464l.031-.001c.187-.011.349-.029.533-.056.341-.049.738-.123 1.219-.227 1.671-.362 4.301-1.085 7.456-2.264a65.76 65.76 0 009.394-4.389c4.1 2.337 8.128 3.995 11.379 5.1 1.771.6 3.312 1.038 4.522 1.336.606.148 1.128.261 1.565.344.218.041.415.074.599.1.181.027.346.045.53.056.066.005.115.005.144.005.275 0 .552-.047.798-.131.37-.127.669-.326.893-.552.225-.228.385-.483.48-.773l.003-.002v-.002l.002-.007.329-.959c.268-.772.645-1.865.955-2.765.132-.38.25-.719.343-.992l.248.004 3.275.043 1.413.02c.184.003.334.005.44.005l.122.003.03.001h.068a2.462 2.462 0 001.306-.364 2.14 2.14 0 00.549-.483c.157-.197.282-.429.351-.671.064-.23.098-.436.137-.691.054-.379.101-.846.135-1.408.032-.563.054-1.22.054-1.959-.002-3.321-.412-8.342-2.016-13.85a60.323 60.323 0 008.969-8.101 46.827 46.827 0 002.839-3.437c.346-.469.633-.878.856-1.224.11-.174.209-.332.294-.479.084-.149.157-.281.226-.436.106-.237.16-.497.16-.742 0-.377-.118-.716-.294-.993zm-8.472 6.552a56.29 56.29 0 01-8.01 6.848c-.624.436-.889 1.172-.675 1.852 1.764 5.537 2.208 10.738 2.208 14.01 0 .823-.029 1.516-.071 2.06l-1.85-.026-2.951-.039h-.05c-1.295.002-2.436.756-2.821 1.861v.001l-.913 2.643c-.176.511-.35 1.02-.503 1.46a32.76 32.76 0 01-1.379-.339c-3.42-.907-9.323-2.932-15.13-6.413a2.16 2.16 0 00-2.181 0c-4.163 2.494-8.371 4.243-11.683 5.365a51.625 51.625 0 01-4.168 1.234 30.61 30.61 0 01-.658.153c-.545-1.586-1.413-4.103-1.416-4.103-.382-1.109-1.53-1.863-2.826-1.863l-.061.001h-.008c-.194.004-1.626.022-3.071.041-.597.009-1.193.018-1.708.024a29.111 29.111 0 01-.066-2.061c-.003-3.272.442-8.473 2.206-14.01.215-.681-.052-1.417-.675-1.853a56.424 56.424 0 01-9.353-8.28 43.415 43.415 0 01-2.62-3.172 27.1 27.1 0 01-.37-.513l1.516-.954 2.414-1.517h.002c.8-.505 1.254-1.316 1.254-2.159 0-.284-.052-.574-.16-.854l-1-2.617c-.192-.501-.386-1.003-.55-1.437 1.4-.492 3.81-1.201 6.842-1.815a67.124 67.124 0 0110.987-1.306c.79-.026 1.491-.481 1.764-1.145 1.729-4.207 3.974-7.853 5.91-10.523a43.45 43.45 0 012.551-3.218c.153-.171.292-.326.425-.468l1.477.992 2.362 1.58c.523.35 1.154.528 1.774.526a3.192 3.192 0 001.774-.526l2.478-1.66 1.362-.912c.964 1.042 2.478 2.876 4.082 5.276 1.647 2.457 3.398 5.508 4.804 8.933.272.665.972 1.12 1.764 1.146 5.017.167 9.583.94 13.013 1.75 1.715.403 3.145.816 4.198 1.162.225.074.429.143.615.209-.176.468-.387 1.018-.596 1.561l-.952 2.492c-.108.28-.159.571-.159.856 0 .841.454 1.652 1.251 2.157h.005l2.532 1.593c.488.308.976.613 1.398.878-.806 1.146-2.281 3.005-4.334 5.119z" fill="#E39191"/><path d="M131.202 160.276c-.947 0-1.757.502-2.129 1.223h-6.711l4.745-4.236c.832.274 1.804.119 2.476-.479.917-.82.917-2.148 0-2.967-.92-.819-2.407-.821-3.325 0-.669.598-.843 1.465-.537 2.21l-4.745 4.236v-5.992c.81-.33 1.374-1.056 1.374-1.9 0-1.16-1.052-2.099-2.35-2.099s-2.35.939-2.35 2.099c0 .844.562 1.57 1.371 1.9v5.992l-4.745-4.236c.307-.745.133-1.612-.537-2.21-.917-.821-2.407-.821-3.322 0-.92.819-.92 2.147 0 2.967.67.598 1.639.753 2.473.479l4.745 4.236h-6.708c-.373-.721-1.182-1.223-2.132-1.223-1.295 0-2.35.939-2.35 2.098 0 1.158 1.055 2.097 2.35 2.097.95 0 1.759-.503 2.132-1.224h6.708l-4.745 4.237c-.834-.275-1.803-.119-2.476.478-.917.821-.917 2.148 0 2.967.918.82 2.407.82 3.325 0 .669-.597.844-1.465.537-2.21l4.745-4.237v5.993c-.81.331-1.372 1.055-1.372 1.901 0 1.158 1.053 2.097 2.351 2.097s2.35-.939 2.35-2.097c0-.846-.564-1.57-1.374-1.901v-5.993l4.745 4.237c-.307.745-.13 1.613.54 2.21.915.82 2.404.82 3.319 0 .92-.819.92-2.148 0-2.967-.667-.597-1.639-.753-2.473-.478l-4.745-4.237h6.71c.373.721 1.183 1.224 2.13 1.224 1.298 0 2.35-.938 2.35-2.097.001-1.16-1.052-2.098-2.35-2.098zm12.38-158.11l-.005-.003h-.001l.004.003h.002z" fill="#E39191"/><path d="M189.706 32.317a2.157 2.157 0 00-.697-.68l-.005-.004a1665.035 1665.035 0 01-3.575-2.245l-.952-.597.081-.209 1.06-2.768.456-1.195.143-.372.041-.104.008-.023-.003.003c.003-.002.003-.004.003-.006v.001l.005-.009h-.003a1.828 1.828 0 00-.113-1.6 2.126 2.126 0 00-.804-.79l.002.002a6.308 6.308 0 00-.476-.237 17.41 17.41 0 00-1.146-.451c-1.594-.573-4.205-1.349-7.536-2.03a72.21 72.21 0 00-10.484-1.346c-1.776-4.045-3.938-7.514-5.834-10.133a46.446 46.446 0 00-2.765-3.482c-.39-.443-.736-.812-1.033-1.11a9.768 9.768 0 00-.419-.4 5.18 5.18 0 00-.4-.333 2.351 2.351 0 00-.697-.35 2.492 2.492 0 00-.741-.112 2.448 2.448 0 00-1.391.423h-.003l-.272.183c-.535.36-1.717 1.15-2.767 1.852l-1.374.921c-.008.004-.01.007-.015.01l-.199-.132-2.62-1.755c-.442-.295-.839-.562-1.131-.758-.147-.099-.268-.177-.351-.236-.044-.027-.076-.05-.101-.065l-.019-.013-.005-.003h.002l-.002-.002-.005-.004h-.003a2.457 2.457 0 00-1.388-.42 2.465 2.465 0 00-.741.11 2.3 2.3 0 00-.702.355l.005-.004-.01.007a4.73 4.73 0 00-.39.325c-.245.22-.518.493-.837.833-1.111 1.18-2.755 3.164-4.521 5.791a55.338 55.338 0 00-4.693 8.5 72.054 72.054 0 00-12.567 1.806c-1.83.431-3.368.874-4.546 1.26-.589.192-1.089.372-1.499.533a9.74 9.74 0 00-.554.23 5.198 5.198 0 00-.474.235 2.097 2.097 0 00-.807.791c-.172.306-.246.62-.246.918 0 .231.045.459.133.681l.003.008c.005.01.012.034.027.07.135.348.633 1.653 1.096 2.867l.623 1.627c.015.04.03.074.042.108l-.203.127c-.71.448-1.779 1.12-2.677 1.684l-1.158.727-.358.225-.103.063-.022.014-.003.002-.007.005v.001c-.29.18-.523.405-.697.68a1.83 1.83 0 00-.135 1.734 4.9 4.9 0 00.228.437c.16.275.363.592.623.968.908 1.311 2.503 3.329 4.745 5.647a60.184 60.184 0 007.586 6.628c-1.602 5.507-2.012 10.527-2.012 13.846 0 .988.037 1.825.088 2.49.03.334.062.624.099.877.039.257.073.462.139.693l-.002-.002c.069.244.194.476.353.674.238.299.547.51.862.645.279.12.569.18.871.195v.002c.051.004.083.004.12.004h.069l.08-.003 3.396-.046c.716-.008 1.411-.018 1.923-.025l.128-.002c.022.067.047.137.074.211.255.742.642 1.857.964 2.795l.417 1.208.13.374.037.106.009.029-.002-.01c.13.392.368.728.731 1.002.184.136.4.254.648.338a2.484 2.484 0 00.908.126h.031c.187-.011.349-.03.533-.056.341-.05.738-.124 1.219-.228 1.671-.362 4.301-1.085 7.456-2.264a65.767 65.767 0 009.394-4.389c4.1 2.337 8.128 3.996 11.379 5.1 1.771.6 3.312 1.038 4.522 1.336.606.148 1.128.26 1.565.344.218.041.415.074.599.1.181.027.346.046.53.056.066.005.115.005.144.005.275 0 .552-.047.798-.13a2.31 2.31 0 00.893-.553c.225-.227.385-.483.48-.773l.003-.002v-.002l.002-.007.329-.96c.268-.771.645-1.864.955-2.764l.343-.992.248.004 3.275.043 1.413.02c.184.003.334.005.44.005l.122.003h.098a2.467 2.467 0 001.306-.363 2.14 2.14 0 00.549-.483c.157-.197.282-.43.351-.671.064-.23.098-.436.137-.691.054-.38.101-.846.135-1.408.032-.563.054-1.22.054-1.96-.002-3.32-.412-8.341-2.016-13.849a60.317 60.317 0 008.969-8.1 46.89 46.89 0 002.839-3.438c.346-.47.633-.878.856-1.224.11-.174.209-.332.294-.479.084-.149.157-.281.226-.436.106-.237.16-.497.16-.742 0-.377-.118-.717-.294-.993zm-8.472 6.552a56.354 56.354 0 01-8.01 6.848c-.624.436-.889 1.172-.675 1.852 1.764 5.537 2.208 10.738 2.208 14.01 0 .823-.029 1.515-.071 2.06l-1.85-.026-2.951-.039h-.05c-1.295.003-2.436.756-2.821 1.861v.001l-.913 2.643c-.176.51-.35 1.02-.503 1.46-.395-.087-.858-.2-1.379-.34-3.42-.906-9.323-2.931-15.13-6.412a2.158 2.158 0 00-2.181 0c-4.163 2.494-8.371 4.243-11.683 5.365a51.734 51.734 0 01-4.168 1.234 30.61 30.61 0 01-.658.153c-.545-1.586-1.413-4.103-1.416-4.103-.382-1.11-1.531-1.863-2.826-1.863l-.061.001h-.008c-.194.004-1.626.022-3.071.041-.597.009-1.193.018-1.708.024a29.392 29.392 0 01-.066-2.061c-.003-3.272.441-8.473 2.205-14.01.216-.681-.051-1.417-.674-1.853a56.424 56.424 0 01-9.353-8.28 43.388 43.388 0 01-2.62-3.172c-.137-.186-.26-.356-.37-.513l1.516-.954 2.414-1.517h.002c.8-.505 1.254-1.316 1.254-2.159 0-.284-.052-.573-.16-.854l-1.001-2.617c-.191-.501-.385-1.003-.549-1.437 1.401-.492 3.81-1.201 6.842-1.815a67.11 67.11 0 0110.987-1.306c.79-.026 1.491-.48 1.764-1.145 1.729-4.207 3.974-7.853 5.91-10.523a43.37 43.37 0 012.551-3.218c.153-.17.292-.326.425-.468l1.477.992 2.362 1.58c.523.35 1.154.528 1.774.526a3.196 3.196 0 001.774-.526l2.478-1.66 1.362-.912c.964 1.042 2.478 2.876 4.082 5.276 1.647 2.457 3.398 5.508 4.804 8.933.272.665.972 1.12 1.764 1.146 5.017.168 9.583.94 13.013 1.75 1.715.403 3.145.816 4.198 1.162.225.073.429.143.615.21-.176.467-.387 1.017-.596 1.56l-.952 2.492c-.108.28-.159.57-.159.856 0 .84.454 1.652 1.251 2.157h.005l2.532 1.593c.488.308.976.613 1.398.878-.806 1.146-2.281 3.005-4.334 5.12z" fill="#E39191"/><path d="M159.202 37.276c-.947 0-1.757.502-2.129 1.223h-6.711l4.745-4.236c.832.274 1.804.119 2.476-.48.917-.82.917-2.147 0-2.966-.92-.82-2.407-.82-3.325 0-.669.598-.843 1.465-.537 2.21l-4.745 4.236V31.27c.81-.33 1.374-1.056 1.374-1.9 0-1.16-1.052-2.098-2.35-2.098s-2.35.938-2.35 2.098c0 .845.562 1.57 1.371 1.9v5.992l-4.745-4.236c.307-.745.133-1.612-.537-2.21-.917-.82-2.407-.82-3.322 0-.92.82-.92 2.147 0 2.967.67.598 1.639.753 2.473.479l4.745 4.236h-6.708c-.373-.72-1.182-1.223-2.132-1.223-1.295 0-2.35.94-2.35 2.098s1.055 2.097 2.35 2.097c.95 0 1.759-.503 2.132-1.224h6.708l-4.745 4.237c-.834-.275-1.803-.119-2.476.478-.917.82-.917 2.148 0 2.967.918.82 2.407.82 3.325 0 .669-.597.844-1.465.537-2.21l4.745-4.236v5.992c-.81.331-1.372 1.055-1.372 1.901 0 1.158 1.053 2.097 2.351 2.097s2.35-.94 2.35-2.097c0-.846-.564-1.57-1.374-1.901v-5.992l4.745 4.236c-.307.745-.13 1.613.54 2.21.915.82 2.404.82 3.319 0 .92-.819.92-2.148 0-2.967-.667-.597-1.639-.753-2.473-.478l-4.745-4.237h6.71c.373.72 1.183 1.224 2.13 1.224 1.298 0 2.35-.938 2.35-2.097.001-1.16-1.052-2.098-2.35-2.098z" fill="#E39191"/></svg>