<svg version="1.1" id="_x32_" xmlns="http://www.w3.org/2000/svg" x="0" y="0" viewBox="0 0 512 512" style="width:256px;height:256px" xml:space="preserve" opacity="1"><style>.st0{fill:#4b4b4b}</style><path class="st0" fill="#e39191" d="M229.068 14.794l-.03-.023h-.004l.023.023z"/><path class="st0" d="M510.206 220.622c-1.062-1.884-2.482-3.417-4.247-4.644v-.007l-.03-.023a809.985 809.985 0 01-5.638-3.962 9997.764 9997.764 0 01-16.15-11.365c-2.228-1.563-4.217-2.954-5.802-4.075.164-.456.314-.92.493-1.421 1.72-5.017 4.292-12.561 6.46-18.902 1.077-3.17 2.064-6.049 2.781-8.158.359-1.054.658-1.914.867-2.534.105-.299.194-.538.254-.71l.045-.157-.016.015c.016-.008.016-.023.016-.038v.007l.03-.06h-.015c.539-1.533.808-3.072.808-4.65 0-2.041-.433-4.194-1.495-6.281a13.84 13.84 0 00-4.905-5.383l.015.008a37.02 37.02 0 00-2.901-1.616c-1.899-.942-4.187-1.952-6.984-3.08-9.72-3.911-25.631-9.205-45.939-13.856-18.289-4.172-40.107-7.768-63.899-9.189-10.827-27.612-24.002-51.3-35.561-69.178-6.281-9.728-12.098-17.742-16.854-23.769-2.377-3.021-4.486-5.541-6.296-7.582a60.84 60.84 0 00-2.556-2.729c-.808-.816-1.54-1.525-2.438-2.266v-.007a13.693 13.693 0 00-8.763-3.147c-3.246.022-6.056 1.047-8.48 2.886v-.008h-.014c-.105.09-.733.561-1.66 1.256-3.26 2.452-10.468 7.851-16.868 12.644-3.201 2.4-6.191 4.65-8.375 6.288-.044.022-.06.044-.09.067-.389-.292-.778-.584-1.211-.905a23715.89 23715.89 0 00-15.971-11.978 2510.602 2510.602 0 01-6.894-5.174c-.897-.673-1.63-1.211-2.138-1.608-.27-.187-.464-.351-.613-.448l-.116-.09c-.012-.008-.023-.008-.034-.015l.011-.007-.011-.008-.03-.03-.016.007c-2.422-1.832-5.218-2.848-8.464-2.878a13.546 13.546 0 00-4.516.755 13.56 13.56 0 00-4.277 2.422l.03-.022c-.03.014-.045.03-.06.044-.868.726-1.6 1.413-2.378 2.221-1.495 1.503-3.155 3.364-5.099 5.682-6.774 8.06-16.793 21.602-27.56 39.538-9.676 16.143-19.889 35.822-28.607 58.023-29.58 1.764-56.093 6.908-76.595 12.329-11.156 2.946-20.532 5.967-27.71 8.606-3.589 1.308-6.639 2.535-9.136 3.634a57.245 57.245 0 00-3.38 1.57c-1.017.508-1.914.987-2.887 1.608-2.138 1.331-3.888 3.312-4.92 5.398a13.932 13.932 0 00-1.495 6.266c0 1.578.27 3.133.808 4.65l.016.053v.007c.03.068.074.224.164.472.823 2.377 3.858 11.282 6.685 19.574 1.42 4.15 2.782 8.143 3.798 11.104.09.27.179.508.254.74-.389.276-.792.56-1.241.868-4.322 3.058-10.842 7.641-16.315 11.492-2.752 1.937-5.234 3.679-7.058 4.965-.912.643-1.66 1.166-2.183 1.533-.269.187-.478.336-.628.433l-.135.098-.015.008-.044.037v.007c-1.765 1.234-3.186 2.767-4.247 4.644a13.874 13.874 0 00-1.78 6.774 13.66 13.66 0 00.957 5.062 35.91 35.91 0 001.39 2.983c.972 1.877 2.214 4.038 3.798 6.61 5.533 8.95 15.253 22.723 28.921 38.552 12.308 14.251 27.814 30.088 46.238 45.244-9.765 37.594-12.263 71.862-12.263 94.525 0 6.744.224 12.456.538 16.995.18 2.28.374 4.262.599 5.989.239 1.75.448 3.155.852 4.726l-.015-.008a13.708 13.708 0 002.154 4.598 13.714 13.714 0 005.249 4.404c1.705.816 3.47 1.227 5.309 1.331v.015c.314.022.508.022.733.022h.419c.075 0 .239-.008.493-.015 2.513-.037 11.919-.18 20.697-.314 4.366-.06 8.598-.127 11.724-.172.27 0 .524-.015.778-.015.134.456.284.935.448 1.443 1.555 5.062 3.918 12.674 5.877 19.082l2.542 8.24.792 2.557c.09.306.165.545.224.725l.06.194-.014-.06c.792 2.669 2.242 4.965 4.456 6.834a14.052 14.052 0 003.948 2.311c1.496.568 3.171.882 4.86.882.299 0 .523-.014.673-.022l.194-.008a33.304 33.304 0 003.245-.381c2.079-.336 4.501-.844 7.432-1.555 10.184-2.468 26.214-7.402 45.445-15.456 17.318-7.275 37.131-17.115 57.26-29.96 24.988 15.955 49.543 27.276 69.357 34.813 10.797 4.098 20.188 7.088 27.561 9.122 3.693 1.01 6.878 1.78 9.541 2.348 1.33.284 2.526.508 3.648.688 1.106.18 2.109.307 3.23.381.404.03.703.03.882.03 1.675 0 3.365-.322 4.86-.89a13.91 13.91 0 005.443-3.769 13.667 13.667 0 002.931-5.278l.015-.015v-.014l.015-.045c.164-.531.942-3.088 2.004-6.55 1.63-5.27 3.932-12.733 5.817-18.872.808-2.595 1.525-4.912 2.094-6.774.478.015.972.015 1.51.03 5.294.075 13.265.195 19.964.292 3.364.053 6.385.097 8.614.134 1.121.022 2.034.038 2.677.038.328.008.583.015.747.015l.18.008h.418c2.827-.015 5.488-.785 7.956-2.482a13.592 13.592 0 003.35-3.298 13.904 13.904 0 002.138-4.583c.389-1.57.598-2.976.838-4.718.328-2.587.613-5.772.822-9.608.194-3.843.329-8.33.329-13.377-.015-22.67-2.513-56.946-12.292-94.547 22.91-18.842 41.318-38.732 54.672-55.301 7.283-9.025 13.055-17.055 17.302-23.463 2.108-3.207 3.858-5.997 5.219-8.36a110.108 110.108 0 001.794-3.268c.508-1.017.957-1.921 1.376-2.975.643-1.622.972-3.395.972-5.07a13.633 13.633 0 00-1.792-6.773zm-51.637 44.728c-12.786 14.767-29.25 31.373-48.825 46.747-3.798 2.975-5.414 8-4.112 12.643 10.752 37.797 13.459 73.305 13.459 95.639 0 5.623-.18 10.348-.434 14.065-3.38-.045-7.357-.113-11.275-.18-9.167-.127-17.99-.262-17.99-.262h-.3c-7.895.015-14.849 5.16-17.197 12.704v.008s-2.766 8.988-5.562 18.042c-1.077 3.484-2.138 6.961-3.066 9.967a184.745 184.745 0 01-8.405-2.318c-20.846-6.191-56.826-20.016-92.222-43.778a11.951 11.951 0 00-13.294 0c-25.378 17.025-51.024 28.966-71.212 36.623-10.079 3.836-18.828 6.61-25.408 8.427-1.45.396-2.766.74-4.008 1.046-3.32-10.827-8.614-28.009-8.629-28.009a18.026 18.026 0 00-17.227-12.718l-.374.007h-.045c-1.181.023-9.914.15-18.722.277-3.634.06-7.268.12-10.408.165-.24-3.709-.404-8.487-.404-14.072-.015-22.334 2.692-57.843 13.444-95.639 1.316-4.652-.314-9.676-4.112-12.652-24.047-18.872-43.397-39.636-57.005-56.527-6.804-8.441-12.188-15.926-15.972-21.653a194.393 194.393 0 01-2.258-3.5c2.782-1.958 6.026-4.246 9.241-6.512 7.507-5.279 14.715-10.356 14.715-10.356h.015a18.057 18.057 0 007.641-14.737c0-1.944-.314-3.918-.972-5.832 0 0-3.036-8.883-6.102-17.863-1.167-3.425-2.348-6.849-3.35-9.81 8.538-3.364 23.224-8.202 41.707-12.396 19.007-4.315 42.066-7.986 66.964-8.913a11.962 11.962 0 0010.752-7.814c10.543-28.72 24.226-53.61 36.024-71.84 5.877-9.114 11.306-16.569 15.553-21.967a165.64 165.64 0 012.587-3.193c2.706 2.034 5.862 4.404 9.002 6.767 7.343 5.495 14.401 10.789 14.401 10.789a18.002 18.002 0 0010.812 3.59 18.004 18.004 0 0010.812-3.59s7.507-5.638 15.104-11.335c2.901-2.168 5.802-4.344 8.3-6.221 5.876 7.111 15.103 19.628 24.884 36.017 10.034 16.771 20.711 37.602 29.28 60.982a11.942 11.942 0 0010.752 7.821c30.581 1.144 58.411 6.416 79.316 11.949 10.453 2.751 19.171 5.57 25.586 7.933 1.376.5 2.617.972 3.754 1.428a2474.598 2474.598 0 01-3.634 10.655c-2.931 8.599-5.758 16.861-5.802 17.011a17.986 17.986 0 00-.972 5.84 18.08 18.08 0 007.627 14.73h.03s7.672 5.413 15.432 10.872c2.976 2.101 5.952 4.187 8.524 5.996-4.916 7.82-13.903 20.516-26.42 34.947z" fill="#e39191"/><path class="st0" d="M324.281 254.471c-5.772 0-10.708 3.432-12.98 8.352h-40.9l28.921-28.921c5.07 1.876 10.992.814 15.089-3.268 5.593-5.6 5.593-14.662 0-20.255-5.608-5.593-14.67-5.6-20.263 0-4.082 4.082-5.144 10.004-3.274 15.089l-28.922 28.914v-40.9c4.936-2.258 8.375-7.208 8.375-12.973 0-7.918-6.415-14.326-14.326-14.326-7.911 0-14.326 6.409-14.326 14.326 0 5.765 3.425 10.715 8.36 12.973v40.9l-28.921-28.914c1.869-5.085.807-11.006-3.275-15.089-5.592-5.6-14.67-5.6-20.248 0-5.608 5.593-5.608 14.655 0 20.255 4.082 4.082 9.989 5.144 15.073 3.268l28.922 28.921H200.7c-2.272-4.92-7.208-8.352-12.995-8.352-7.896 0-14.326 6.415-14.326 14.326 0 7.903 6.43 14.318 14.326 14.318 5.787 0 10.722-3.439 12.995-8.359h40.885l-28.922 28.922c-5.084-1.877-10.991-.808-15.089 3.267-5.592 5.601-5.592 14.662 0 20.255 5.593 5.593 14.671 5.593 20.263 0 4.082-4.075 5.144-10.004 3.275-15.089l28.921-28.921v40.906c-4.935 2.266-8.36 7.208-8.36 12.981 0 7.903 6.416 14.318 14.326 14.318 7.911 0 14.326-6.415 14.326-14.318 0-5.773-3.439-10.715-8.375-12.981V283.19l28.922 28.921c-1.87 5.085-.792 11.014 3.29 15.089 5.578 5.593 14.654 5.593 20.233 0 5.608-5.593 5.608-14.662 0-20.255-4.068-4.075-9.99-5.144-15.074-3.267L270.4 274.756h40.9c2.272 4.92 7.208 8.359 12.98 8.359 7.911 0 14.326-6.408 14.326-14.318.001-7.918-6.414-14.326-14.325-14.326z" fill="#e39191"/></svg>