<svg xmlns="http://www.w3.org/2000/svg" width="465" viewBox="0 0 348.75 186.75" height="249" version="1.0"><defs><clipPath id="a"><path d="M.11 0h348.28v186.5H.11zm0 0"/></clipPath><clipPath id="b"><path d="M119.156 0h110.102v105.61H119.156zm0 0"/></clipPath></defs><g clip-path="url(#a)"><path fill="#fff" d="M.11 0h348.28v186.5H.11zm0 0"/></g><path d="M123.72 155.288c-.048.89.39 1.313 1.25 1.313h.718c.86 0 1.297-.422 1.265-1.313v-15.312c.75 1.547 1.313 3.062 1.907 5.406l1.547-1.453c.437-.39.53-.594.53-.953 0-.36-.359-.953-1.046-1.844-.969-1.125-1.563-1.625-2.938-2.484v-4.157h3.063c.594 0 .953-.297.953-.78 0-.5-.36-.798-.953-.798h-3.063v-5.578c.032-.89-.406-1.328-1.265-1.328h-.719c-.86 0-1.297.437-1.25 1.328v5.578h-3.906c-.594 0-.953.297-.953.797 0 .484.36.781.953.781h3.531c-.75 4-2.672 9.875-4.156 12.703-.422.829-.563 1.157-.563 1.422 0 .36.297.703.672.703.297 0 .594-.296 1.281-1.265a37.664 37.664 0 003.141-5.281zm21.108-2.937c.407 1.156.625 2.015 1.094 3.734l2.438-1.531c.625-.39.86-.75.86-1.219 0-.828-1.688-3.594-3.423-5.61-1.719-1.937-2.187-2.343-2.687-2.343-.485 0-.89.36-.89.828 0 .203.077.36.296.797.5.75 1.328 2.562 1.86 4.047-2.188.172-7.391.437-8.72.469.954-1.422 1.844-3.094 2.641-5.079 2.375-5.812 2.375-5.812 2.375-6.078 0-.422-.265-.687-.828-.859l-2.766-.781c-.89 4.343-1.984 8.547-3.14 12.14l-.219.688c-.531.031-.797.031-3.531.062l.844 3.047c.14.39.343.594.671.594.297 0 .297 0 3.954-.703 5.515-1.016 5.515-1.016 8.578-2zm4.829-13.172c-3.438-3.266-5.36-6.922-5.75-10.922-.032-.828-.5-1.219-1.313-1.188h-4c-.594 0-.953.297-.953.797 0 .485.36.782.953.782h2.281c.72-.032 1.094.375 1.094 1.125.063 1.421.328 3.14.781 4.75.797 2.906 1.985 5.187 3.594 7.093.5.594.766.766 1.156.766.47 0 .766-.234 1.032-.766zm-15.688-9.672c-.625 4.36-1.64 8.516-2.703 10.922-.188.469-.266.672-.266.86 0 .437.375.827.797.827.328 0 .531-.156.953-.656 1.516-1.922 2.344-3.562 3.61-7.125.656-1.89.953-2.937.953-3.234 0-.438-.266-.703-.797-.86zm43.099 1.953c1.813.328 2.563.625 3.688 1.516 2.375 1.875 3.703 4.781 3.703 8.156 0 4.25-2.047 7.953-5.578 10.094-1.031.625-2.344 1.187-3.797 1.687-.625.188-.828.39-.828.828 0 .453.36.813.797.813.984 0 4.328-.89 5.875-1.578 4.844-2.11 7.625-6.297 7.625-11.516 0-4.484-2.11-8.344-5.64-10.297-2.313-1.281-5.22-1.984-8.298-1.984-8.64 0-14.78 5.844-14.78 14.031 0 5.016 2.577 8.938 5.843 8.938 2.937 0 5.844-3.063 7.89-8.375 1.282-3.344 2.204-7.391 2.844-12.438zm-4.328-.266c-.062.438-.093.735-.125.891-.86 6.172-2.218 11.25-3.86 14.625-1.093 2.203-1.983 3.203-2.874 3.203-1.36 0-2.547-3.047-2.547-6.437 0-3.469 1.094-6.5 3.172-8.922 1.656-1.938 3.625-3 6.234-3.36zm55.037 15.844c.625 0 .985-.297.985-.797s-.36-.797-.985-.797H215.2c.11-.75.266-2.14.36-3.562h8.687c.625 0 .984-.297.984-.781 0-.5-.36-.797-.984-.797h-8.578c.062-.563.094-1.985.125-3.203h9.765c.594 0 .97-.297.97-.797 0-.485-.376-.781-.97-.781h-9.734v-2.188c.031-.922-.39-1.344-1.312-1.312h-.891c-.922-.032-1.36.421-1.328 1.312v2.188h-8.766c-.64 0-.969.296-.969.78 0 .5.329.798.97.798h8.734c-.032.625-.094 2.11-.157 3.203h-7.86c-.624 0-.983.297-.983.797 0 .484.359.781.984.781h7.75c-.266 2.484-.266 2.64-.453 3.562h-10.828c-.625 0-.985.297-.985.797s.36.797.985.797h10.39l-.031.094c-.484 1.453-1.156 2.437-2.266 3.437-2.093 1.782-5.546 3.532-8.453 4.25-1.39.36-1.625.5-1.625 1.063 0 .5.375.86.86.86.14 0 .437-.032.797-.11 2.312-.36 5.28-1.188 7.03-1.938 3.72-1.593 5.938-3.671 7.095-6.703 2.14 3.922 4.984 6.11 9.968 7.657 1.344.437 2.469.687 2.86.687.64 0 1-.297 1.297-1.047l1.125-2.672c-7-.765-11.688-2.578-14.204-5.578zm-24.453-17.656c-.031-.531-.062-.766-.172-.922-.125-.297-.453-.5-.781-.5-.531 0-.86.297-1.031.953-.297 1.328-1.188 3.047-2.172 4.063-.36.437-.438.531-.438.828 0 .265.078.39.328.687l1.829 2.25c1.64-1.78 2.171-3.078 2.406-5.78h21.11c.5 0 .796.233.796.624 0 .266-.328 1.125-.75 1.984-.203.391-.266.563-.266.766 0 .39.36.719.782.719.406 0 1.328-.688 2.906-2.11.922-.89 1.39-1.578 1.39-2.171 0-.344-.093-.641-.296-.86-.328-.406-.657-.531-1.422-.531h-11.485v-2.25c.032-.922-.39-1.344-1.312-1.313h-1.328c-.922-.03-1.344.391-1.313 1.313v2.25zm0 0" fill="#ff978a"/><g clip-path="url(#b)"><path fill="#ffc3bc" d="M211.883 61.79c8.613-2.99 14.996-8.864 17.351-15.118l-11.03-5.348 5.347-11.031c-5.723-3.453-14.375-4.11-22.988-1.121-6.735 2.34-12.11 6.445-15.254 11.121-.024-.016-.047-.035-.07-.05 3.761-4.528 6.152-11.306 6.152-18.884 0-9.113-3.457-17.07-8.598-21.343l-8.664 8.664L165.46.016c-5.14 4.273-8.598 12.23-8.598 21.343 0 6.578 1.805 12.547 4.735 16.97-3.227-3.845-7.996-7.153-13.774-9.157-8.61-2.988-17.262-2.332-22.984 1.121l5.344 11.031-11.028 5.348c2.352 6.254 8.739 12.129 17.348 15.117 4.906 1.703 9.82 2.219 14.203 1.715-3.941 2.11-7.734 5.406-10.812 9.7-5.305 7.41-7.133 15.89-5.446 22.359l12.094-1.997 2 12.09c6.668-.48 14.11-4.937 19.418-12.344 4.082-5.699 6.101-12.03 6.05-17.597.032 0 .067.004.102.004-.054 5.562 1.965 11.894 6.047 17.594 5.309 7.406 12.754 11.863 19.418 12.343l2-12.09 12.094 1.996c1.687-6.468-.137-14.949-5.445-22.359-3.098-4.324-6.922-7.637-10.899-9.746 4.473.578 9.52.082 14.555-1.668zm0 0"/></g><path fill="#fda59a" d="M187.82 55.656a13.491 13.491 0 01-1.04 5.21 13.536 13.536 0 01-2.952 4.423 13.54 13.54 0 01-2.062 1.695 13.643 13.643 0 01-12.786 1.258 13.363 13.363 0 01-2.355-1.258 13.579 13.579 0 01-3.758-3.758 13.555 13.555 0 01-2.035-4.913 13.461 13.461 0 01-.262-2.657c0-.894.086-1.781.262-2.66a13.567 13.567 0 012.035-4.91 13.42 13.42 0 011.692-2.066 13.625 13.625 0 0112.293-3.727c.878.172 1.73.43 2.558.773.824.344 1.61.762 2.356 1.258a13.8 13.8 0 012.062 1.696c.633.632 1.2 1.32 1.695 2.066.497.742.918 1.527 1.258 2.355a13.578 13.578 0 011.04 5.215zm0 0"/><path fill="#fff" d="M174.027 44.184l11.63 11.629-11.63 11.628-11.629-11.629zm0 0"/></svg>