<svg width="190" height="198" viewBox="0 0 190 198" fill="none" xmlns="http://www.w3.org/2000/svg">
<path d="M37.5817 52.1665L37.5766 52.1631H37.5759L37.5798 52.1665H37.5817Z" fill="#E39191"/>
<path d="M83.7056 82.3174C83.5313 82.0414 83.2984 81.8169 83.0088 81.6371V81.6361L83.0039 81.6327C82.9352 81.5911 82.5721 81.3634 82.0789 81.0524C81.338 80.588 80.2903 79.9297 79.4293 79.3876C79.0638 79.1586 78.7374 78.9549 78.4774 78.7907C78.5043 78.7239 78.5289 78.6559 78.5583 78.5825C78.8405 77.8476 79.2624 76.7425 79.6181 75.8137C79.7948 75.3493 79.9568 74.9276 80.0744 74.6186C80.1333 74.4642 80.1823 74.3383 80.2166 74.2474C80.2339 74.2036 80.2485 74.1686 80.2583 74.1434L80.2657 74.1204L80.2631 74.1226C80.2657 74.1215 80.2657 74.1193 80.2657 74.1171V74.1181L80.2706 74.1093H80.2682C80.3566 73.8847 80.4007 73.6593 80.4007 73.4282C80.4007 73.1292 80.3297 72.8138 80.1554 72.5081C79.9838 72.2035 79.699 71.9145 79.3507 71.7196L79.3532 71.7207C79.1912 71.6309 79.0441 71.5596 78.8772 71.484C78.5657 71.346 78.1903 71.1981 77.7314 71.0328C76.1367 70.4599 73.5263 69.6845 70.1945 69.0032C67.194 68.392 63.6145 67.8653 59.7111 67.6571C57.9348 63.6124 55.7733 60.1425 53.8769 57.5236C52.8464 56.0986 51.8921 54.9247 51.1118 54.0418C50.7218 53.5993 50.3758 53.2302 50.0788 52.9312C49.9292 52.78 49.7917 52.6496 49.6595 52.5314C49.5269 52.4119 49.4068 52.308 49.2595 52.1995V52.1985C49.0535 52.0452 48.8106 51.9247 48.5627 51.8481C48.3148 51.7703 48.0597 51.7375 47.8218 51.7375C47.2893 51.7407 46.8283 51.8908 46.4306 52.1602V52.1591H46.4283C46.4111 52.1722 46.308 52.2412 46.1559 52.343C45.6211 52.7022 44.4385 53.4931 43.3885 54.1952C42.8634 54.5468 42.3728 54.8763 42.0145 55.1163C42.0073 55.1195 42.0047 55.1227 41.9998 55.1261C41.9359 55.0833 41.8721 55.0406 41.8011 54.9935C41.1068 54.5282 40.0615 53.8281 39.1808 53.2389C38.7392 52.9442 38.3417 52.6772 38.0498 52.481C37.9026 52.3825 37.7824 52.3036 37.699 52.2455C37.6547 52.2181 37.6229 52.1941 37.5984 52.1799L37.5794 52.1667C37.5774 52.1655 37.5756 52.1655 37.5738 52.1645L37.5756 52.1635L37.5738 52.1623L37.5689 52.1579L37.5663 52.1589C37.1689 51.8906 36.7102 51.7417 36.1777 51.7373C35.9398 51.7362 35.687 51.7701 35.4368 51.8479C35.1884 51.9235 34.9423 52.0471 34.7351 52.2027L34.74 52.1995C34.7351 52.2015 34.7326 52.2039 34.7301 52.2059C34.5877 52.3123 34.4676 52.4129 34.34 52.5313C34.0947 52.7514 33.8224 53.0241 33.5034 53.3636C32.3921 54.5443 30.7483 56.528 28.9819 59.1553C27.3944 61.52 25.7188 64.4027 24.2885 67.6548C19.4356 67.9132 15.0858 68.6667 11.7222 69.4608C9.8919 69.8923 8.35365 70.3348 7.17601 70.7214C6.58719 70.913 6.0868 71.0928 5.67714 71.2537C5.47107 71.3326 5.28946 71.4081 5.1226 71.4837C4.95575 71.5581 4.80859 71.6283 4.64896 71.7193C4.29819 71.9142 4.01108 72.2044 3.84177 72.51C3.67016 72.8156 3.59649 73.1299 3.59649 73.4279C3.59649 73.659 3.64079 73.8868 3.72906 74.109L3.73168 74.1168V74.1178C3.7366 74.1278 3.74382 74.1506 3.75859 74.1869C3.89361 74.5351 4.39154 75.8396 4.85535 77.0542C5.08831 77.6621 5.31177 78.2471 5.47846 78.6808C5.49322 78.7203 5.50782 78.7552 5.52013 78.7892C5.45631 78.8296 5.39019 78.8712 5.31653 78.9163C4.60745 79.3643 3.53776 80.0356 2.63985 80.5997C2.18835 80.8835 1.78114 81.1387 1.48189 81.327C1.33227 81.4212 1.20955 81.4978 1.12374 81.5516C1.07961 81.579 1.04532 81.6008 1.02071 81.615L0.998565 81.6294L0.996104 81.6306L0.988885 81.636V81.637C0.699315 81.8178 0.466182 82.0423 0.292112 82.3173C0.117877 82.5954 8.05323e-05 82.934 8.05323e-05 83.3096C-0.00238041 83.5527 0.0515962 83.8133 0.157088 84.0511C0.228127 84.2066 0.299331 84.339 0.385135 84.488C0.544604 84.763 0.74837 85.0795 1.00824 85.4563C1.916 86.7673 3.51069 88.7848 5.7531 91.1035C7.77238 93.1911 10.3163 95.511 13.339 97.7311C11.7369 103.238 11.3271 108.258 11.3271 111.578C11.3271 112.565 11.3639 113.402 11.4154 114.067C11.4449 114.401 11.4767 114.691 11.5137 114.944C11.5529 115.201 11.5872 115.406 11.6534 115.637L11.651 115.635C11.7197 115.879 11.8447 116.111 12.0044 116.309C12.2423 116.608 12.5514 116.819 12.8655 116.954C13.1453 117.074 13.4348 117.134 13.7365 117.149V117.151C13.7881 117.154 13.8199 117.154 13.8568 117.154H13.8765C13.8937 117.154 13.906 117.154 13.9255 117.154C13.9378 117.154 13.9648 117.153 14.0064 117.152C14.4187 117.147 15.9619 117.126 17.402 117.106C18.1183 117.098 18.8126 117.088 19.3255 117.081C19.3698 117.081 19.4115 117.079 19.4531 117.079C19.4751 117.146 19.4997 117.216 19.5266 117.29C19.7818 118.032 20.1694 119.147 20.4908 120.085C20.6528 120.554 20.7999 120.98 20.9079 121.293C20.9619 121.448 21.006 121.575 21.0378 121.667C21.0526 121.712 21.0649 121.747 21.0746 121.773L21.0844 121.802L21.0821 121.793C21.2121 122.184 21.4499 122.52 21.8132 122.794C21.9973 122.93 22.213 123.048 22.4609 123.133C22.7063 123.216 22.9811 123.262 23.2582 123.262C23.3073 123.262 23.344 123.26 23.3687 123.258L23.4005 123.257C23.5869 123.246 23.7488 123.228 23.9329 123.201C24.2739 123.152 24.6713 123.078 25.1522 122.974C26.823 122.612 29.4529 121.889 32.608 120.71C35.4492 119.644 38.6998 118.203 42.0022 116.321C46.1018 118.658 50.1304 120.316 53.3811 121.421C55.1525 122.021 56.6932 122.459 57.9028 122.757C58.5087 122.905 59.0312 123.018 59.4681 123.101C59.6863 123.142 59.8826 123.175 60.0666 123.201C60.2481 123.228 60.4127 123.246 60.5966 123.257C60.6628 123.262 60.7119 123.262 60.7413 123.262C61.0161 123.262 61.2933 123.215 61.5386 123.131C61.9091 123.004 62.2083 122.805 62.4316 122.579C62.6574 122.351 62.8168 122.096 62.9125 121.806L62.9149 121.804V121.802L62.9174 121.795C62.9443 121.717 63.0719 121.343 63.2462 120.836C63.5136 120.064 63.8913 118.971 64.2005 118.071C64.3331 117.691 64.4507 117.352 64.5441 117.079C64.6225 117.081 64.7035 117.081 64.7918 117.083C65.6604 117.094 66.9681 117.112 68.0671 117.126C68.6191 117.134 69.1147 117.14 69.4804 117.146C69.6643 117.149 69.8141 117.151 69.9196 117.151C69.9734 117.153 70.0152 117.154 70.0421 117.154L70.0717 117.155C70.1151 117.155 70.1379 117.155 70.1402 117.155C70.604 117.153 71.0406 117.04 71.4455 116.791C71.6467 116.667 71.8381 116.505 71.9951 116.308C72.1521 116.111 72.2773 115.879 72.3459 115.637C72.4097 115.407 72.444 115.201 72.4834 114.946C72.5372 114.567 72.584 114.1 72.6182 113.538C72.6501 112.975 72.6722 112.318 72.6722 111.579C72.6698 108.258 72.2599 103.237 70.6556 97.729C74.4142 94.969 77.4343 92.0554 79.6252 89.6283C80.8201 88.3063 81.767 87.13 82.4638 86.1913C82.8096 85.7216 83.0967 85.3129 83.32 84.9667C83.4305 84.7926 83.5286 84.6349 83.6144 84.488C83.6977 84.339 83.7714 84.2066 83.8401 84.0522C83.9456 83.8146 83.9996 83.5549 83.9996 83.3096C83.9999 82.9329 83.8823 82.5935 83.7056 82.3174ZM75.2339 88.8694C73.1362 91.0325 70.4351 93.465 67.2235 95.7171C66.6004 96.1529 66.3353 96.889 66.5489 97.5691C68.3129 103.106 68.757 108.307 68.757 111.579C68.757 112.402 68.7275 113.095 68.6858 113.639C68.1313 113.632 67.4788 113.622 66.836 113.613C65.3321 113.594 63.8845 113.574 63.8845 113.574C63.8796 113.574 63.8722 113.574 63.8698 113.574H63.8402H63.8379H63.8353C62.5401 113.576 61.3992 114.33 61.0139 115.435V115.436C61.0139 115.436 60.5601 116.753 60.1014 118.079C59.9247 118.59 59.7507 119.099 59.5984 119.539C59.2033 119.452 58.7397 119.339 58.2195 119.2C54.7994 118.293 48.8965 116.268 43.0893 112.787C42.4319 112.393 41.5658 112.393 40.9082 112.787C36.7447 115.281 32.5371 117.03 29.225 118.152C27.5714 118.714 26.1361 119.12 25.0565 119.386C24.8186 119.444 24.6027 119.494 24.399 119.539C23.8543 117.953 22.9857 115.436 22.9833 115.436C22.6005 114.327 21.4524 113.573 20.157 113.573L20.0956 113.574H20.0882C19.8945 113.578 18.4617 113.596 17.0166 113.615C16.4204 113.624 15.8242 113.633 15.3091 113.639C15.2697 113.096 15.2428 112.396 15.2428 111.578C15.2403 108.306 15.6845 103.105 17.4485 97.5682C17.6644 96.8868 17.3969 96.1508 16.7738 95.7149C12.8286 92.9504 9.65401 89.9088 7.42145 87.4346C6.30517 86.1981 5.42185 85.1016 4.80104 84.2627C4.66356 84.0765 4.541 83.9068 4.43059 83.75C4.88701 83.4632 5.41923 83.1281 5.94669 82.7961C7.17831 82.0228 8.36087 81.2791 8.36087 81.2791H8.36333C9.16314 80.7742 9.61693 79.9627 9.61693 79.1204C9.61693 78.8356 9.56542 78.5465 9.45746 78.2661C9.45746 78.2661 8.95937 76.9649 8.45635 75.6494C8.26489 75.1477 8.07114 74.6462 7.90674 74.2124C9.30751 73.7197 11.7169 73.011 14.7493 72.3966C17.8676 71.7645 21.6508 71.2268 25.7356 71.091C26.5255 71.0648 27.2272 70.6102 27.4996 69.9464C29.2293 65.7393 31.4742 62.0933 33.4098 59.4229C34.374 58.0879 35.2647 56.9958 35.9614 56.2051C36.1135 56.0342 36.2535 55.8787 36.3859 55.7374C36.8298 56.0353 37.3476 56.3825 37.8628 56.7286C39.0675 57.5336 40.2254 58.3091 40.2254 58.3091C40.748 58.6586 41.3786 58.837 41.9993 58.8349C42.6199 58.837 43.2504 58.6586 43.7731 58.3091C43.7731 58.3091 45.0047 57.4832 46.2511 56.6487C46.727 56.3311 47.203 56.0123 47.6128 55.7374C48.5769 56.779 50.0907 58.6126 51.6954 61.0133C53.3416 63.47 55.0933 66.5214 56.4991 69.9462C56.7714 70.6111 57.4707 71.0657 58.2631 71.0919C63.2803 71.2595 67.8462 72.0317 71.2759 72.8422C72.9908 73.2452 74.4211 73.6581 75.4736 74.0043C75.6993 74.0775 75.9029 74.1467 76.0895 74.2135C75.9128 74.6812 75.7018 75.2309 75.4933 75.7743C75.0124 77.0339 74.5486 78.2441 74.5414 78.2661C74.4334 78.5465 74.3819 78.8368 74.3819 79.1216C74.3819 79.9627 74.8357 80.7742 75.6332 81.2793H75.6381C75.6381 81.2793 76.8968 82.0722 78.17 82.8719C78.6582 83.1796 79.1465 83.4852 79.5684 83.7502C78.7619 84.8957 77.2875 86.7555 75.2339 88.8694Z" fill="#E39191"/>
<path d="M53.2022 87.2756C52.2552 87.2756 51.4454 87.7783 51.0727 88.499H44.3625L49.1073 84.2625C49.9391 84.5374 50.9107 84.3818 51.5829 83.7838C52.5005 82.9635 52.5005 81.6361 51.5829 80.8168C50.6628 79.9975 49.1761 79.9965 48.2585 80.8168C47.5888 81.4147 47.4146 82.2822 47.7213 83.0271L42.9763 87.2625V81.2713C43.7861 80.9406 44.3504 80.2155 44.3504 79.371C44.3504 78.2111 43.2979 77.2725 42 77.2725C40.7021 77.2725 39.6496 78.2113 39.6496 79.371C39.6496 80.2155 40.2116 80.9406 41.0212 81.2713V87.2625L36.2763 83.0271C36.583 82.2822 36.4087 81.4149 35.739 80.8168C34.8216 79.9965 33.3322 79.9965 32.4171 80.8168C31.497 81.6361 31.497 82.9635 32.4171 83.7838C33.0868 84.3818 34.0559 84.5374 34.89 84.2625L39.635 88.499H32.9272C32.5544 87.7783 31.7446 87.2756 30.7952 87.2756C29.4997 87.2756 28.4448 88.2153 28.4448 89.3741C28.4448 90.5318 29.4997 91.4715 30.7952 91.4715C31.7446 91.4715 32.5543 90.9677 32.9272 90.247H39.6349L34.8899 94.4836C34.0558 94.2087 33.0866 94.3653 32.4143 94.9622C31.4969 95.7827 31.4969 97.11 32.4143 97.9292C33.3319 98.7485 34.8213 98.7485 35.7387 97.9292C36.4084 97.3323 36.5827 96.4638 36.276 95.7189L41.0209 91.4825V97.4746C40.2112 97.8065 39.6493 98.5304 39.6493 99.3761C39.6493 100.534 40.7019 101.473 41.9997 101.473C43.2976 101.473 44.35 100.534 44.35 99.3761C44.35 98.5304 43.7858 97.8065 42.976 97.4746V91.4825L47.721 95.7189C47.4142 96.4638 47.5911 97.3323 48.2608 97.9292C49.1759 98.7485 50.665 98.7485 51.5803 97.9292C52.5003 97.11 52.5003 95.7815 51.5803 94.9622C50.9129 94.3653 49.9413 94.2087 49.1072 94.4836L44.3623 90.247H51.0725C51.4452 90.9677 52.2551 91.4715 53.202 91.4715C54.4999 91.4715 55.5524 90.5328 55.5524 89.3741C55.5525 88.2143 54.5001 87.2756 53.2022 87.2756Z" fill="#E39191"/>
<path d="M115.582 125.166L115.577 125.163H115.576L115.58 125.166H115.582Z" fill="#E39191"/>
<path d="M161.706 155.317C161.531 155.041 161.298 154.817 161.009 154.637V154.636L161.004 154.633C160.935 154.591 160.572 154.363 160.079 154.052C159.338 153.588 158.29 152.93 157.429 152.388C157.064 152.159 156.737 151.955 156.477 151.791C156.504 151.724 156.529 151.656 156.558 151.583C156.84 150.848 157.262 149.743 157.618 148.814C157.795 148.349 157.957 147.928 158.074 147.619C158.133 147.464 158.182 147.338 158.217 147.247C158.234 147.204 158.248 147.169 158.258 147.143L158.266 147.12L158.263 147.123C158.266 147.121 158.266 147.119 158.266 147.117V147.118L158.271 147.109H158.268C158.357 146.885 158.401 146.659 158.401 146.428C158.401 146.129 158.33 145.814 158.155 145.508C157.984 145.204 157.699 144.915 157.351 144.72L157.353 144.721C157.191 144.631 157.044 144.56 156.877 144.484C156.566 144.346 156.19 144.198 155.731 144.033C154.137 143.46 151.526 142.684 148.195 142.003C145.194 141.392 141.614 140.865 137.711 140.657C135.935 136.612 133.773 133.142 131.877 130.524C130.846 129.099 129.892 127.925 129.112 127.042C128.722 126.599 128.376 126.23 128.079 125.931C127.929 125.78 127.792 125.65 127.66 125.531C127.527 125.412 127.407 125.308 127.26 125.199V125.198C127.053 125.045 126.811 124.925 126.563 124.848C126.315 124.77 126.06 124.737 125.822 124.737C125.289 124.741 124.828 124.891 124.431 125.16V125.159H124.428C124.411 125.172 124.308 125.241 124.156 125.343C123.621 125.702 122.439 126.493 121.389 127.195C120.863 127.547 120.373 127.876 120.015 128.116C120.007 128.12 120.005 128.123 120 128.126C119.936 128.083 119.872 128.041 119.801 127.994C119.107 127.528 118.062 126.828 117.181 126.239C116.739 125.944 116.342 125.677 116.05 125.481C115.903 125.382 115.782 125.304 115.699 125.245C115.655 125.218 115.623 125.194 115.598 125.18L115.579 125.167C115.577 125.166 115.576 125.166 115.574 125.164L115.576 125.163L115.574 125.162L115.569 125.158L115.566 125.159C115.169 124.891 114.71 124.742 114.178 124.737C113.94 124.736 113.687 124.77 113.437 124.848C113.188 124.924 112.942 125.047 112.735 125.203L112.74 125.199C112.735 125.202 112.733 125.204 112.73 125.206C112.588 125.312 112.468 125.413 112.34 125.531C112.095 125.751 111.822 126.024 111.503 126.364C110.392 127.544 108.748 129.528 106.982 132.155C105.394 134.52 103.719 137.403 102.289 140.655C97.4356 140.913 93.0858 141.667 89.7222 142.461C87.8919 142.892 86.3537 143.335 85.176 143.721C84.5872 143.913 84.0868 144.093 83.6771 144.254C83.4711 144.333 83.2895 144.408 83.1226 144.484C82.9558 144.558 82.8086 144.628 82.649 144.719C82.2982 144.914 82.0111 145.204 81.8418 145.51C81.6702 145.816 81.5965 146.13 81.5965 146.428C81.5965 146.659 81.6408 146.887 81.7291 147.109L81.7317 147.117V147.118C81.7366 147.128 81.7438 147.151 81.7586 147.187C81.8936 147.535 82.3915 148.84 82.8553 150.054C83.0883 150.662 83.3118 151.247 83.4785 151.681C83.4932 151.72 83.5078 151.755 83.5201 151.789C83.4563 151.83 83.3902 151.871 83.3165 151.916C82.6074 152.364 81.5378 153.036 80.6398 153.6C80.1883 153.883 79.7811 154.139 79.4819 154.327C79.3323 154.421 79.2095 154.498 79.1237 154.552C79.0796 154.579 79.0453 154.601 79.0207 154.615L78.9986 154.629L78.9961 154.631L78.9889 154.636V154.637C78.6993 154.818 78.4662 155.042 78.2921 155.317C78.1179 155.595 78.0001 155.934 78.0001 156.31C77.9976 156.553 78.0516 156.813 78.1571 157.051C78.2281 157.207 78.2993 157.339 78.3851 157.488C78.5446 157.763 78.7484 158.08 79.0082 158.456C79.916 159.767 81.5107 161.785 83.7531 164.104C85.7724 166.191 88.3163 168.511 91.339 170.731C89.7369 176.238 89.3271 181.258 89.3271 184.578C89.3271 185.565 89.3639 186.402 89.4154 187.067C89.4449 187.401 89.4767 187.691 89.5137 187.944C89.5529 188.201 89.5872 188.406 89.6534 188.637L89.651 188.635C89.7197 188.879 89.8447 189.111 90.0044 189.309C90.2423 189.608 90.5514 189.819 90.8655 189.954C91.1453 190.074 91.4348 190.134 91.7365 190.149V190.151C91.7881 190.154 91.8199 190.154 91.8568 190.154H91.8765C91.8937 190.154 91.906 190.154 91.9255 190.154C91.9378 190.154 91.9648 190.153 92.0064 190.152C92.4187 190.147 93.9619 190.126 95.402 190.106C96.1183 190.098 96.8126 190.088 97.3255 190.081C97.3698 190.081 97.4115 190.079 97.4531 190.079C97.4751 190.146 97.4997 190.216 97.5266 190.29C97.7818 191.032 98.1694 192.147 98.4908 193.085C98.6528 193.554 98.7999 193.98 98.9079 194.293C98.9619 194.448 99.006 194.575 99.0378 194.667C99.0526 194.712 99.0649 194.747 99.0746 194.773L99.0844 194.802L99.0821 194.793C99.2121 195.184 99.4499 195.52 99.8132 195.794C99.9973 195.93 100.213 196.048 100.461 196.133C100.706 196.216 100.981 196.262 101.258 196.262C101.307 196.262 101.344 196.26 101.369 196.258L101.4 196.257C101.587 196.246 101.749 196.228 101.933 196.201C102.274 196.152 102.671 196.078 103.152 195.974C104.823 195.612 107.453 194.889 110.608 193.71C113.449 192.644 116.7 191.203 120.002 189.321C124.102 191.658 128.13 193.316 131.381 194.421C133.152 195.021 134.693 195.459 135.903 195.757C136.509 195.905 137.031 196.018 137.468 196.101C137.686 196.142 137.883 196.175 138.067 196.201C138.248 196.228 138.413 196.246 138.597 196.257C138.663 196.262 138.712 196.262 138.741 196.262C139.016 196.262 139.293 196.215 139.539 196.131C139.909 196.004 140.208 195.805 140.432 195.579C140.657 195.351 140.817 195.096 140.912 194.806L140.915 194.804V194.802L140.917 194.795C140.944 194.717 141.072 194.343 141.246 193.836C141.514 193.064 141.891 191.971 142.201 191.071C142.333 190.691 142.451 190.352 142.544 190.079C142.622 190.081 142.704 190.081 142.792 190.083C143.66 190.094 144.968 190.112 146.067 190.126C146.619 190.134 147.115 190.14 147.48 190.146C147.664 190.149 147.814 190.151 147.92 190.151C147.973 190.153 148.015 190.154 148.042 190.154L148.072 190.155C148.115 190.155 148.138 190.155 148.14 190.155C148.604 190.153 149.041 190.04 149.446 189.791C149.647 189.667 149.838 189.505 149.995 189.308C150.152 189.111 150.277 188.879 150.346 188.637C150.41 188.407 150.444 188.201 150.483 187.946C150.537 187.567 150.584 187.1 150.618 186.538C150.65 185.975 150.672 185.318 150.672 184.579C150.67 181.258 150.26 176.237 148.656 170.729C152.414 167.969 155.434 165.055 157.625 162.628C158.82 161.306 159.767 160.13 160.464 159.191C160.81 158.722 161.097 158.313 161.32 157.967C161.43 157.793 161.529 157.635 161.614 157.488C161.698 157.339 161.771 157.207 161.84 157.052C161.946 156.815 162 156.555 162 156.31C162 155.933 161.882 155.594 161.706 155.317ZM153.234 161.869C151.136 164.033 148.435 166.465 145.224 168.717C144.6 169.153 144.335 169.889 144.549 170.569C146.313 176.106 146.757 181.307 146.757 184.579C146.757 185.402 146.728 186.095 146.686 186.639C146.131 186.632 145.479 186.622 144.836 186.613C143.332 186.594 141.885 186.574 141.885 186.574C141.88 186.574 141.872 186.574 141.87 186.574H141.84H141.838H141.835C140.54 186.576 139.399 187.33 139.014 188.435V188.436C139.014 188.436 138.56 189.753 138.101 191.079C137.925 191.59 137.751 192.099 137.598 192.539C137.203 192.452 136.74 192.339 136.219 192.2C132.799 191.293 126.896 189.268 121.089 185.787C120.432 185.393 119.566 185.393 118.908 185.787C114.745 188.281 110.537 190.03 107.225 191.152C105.571 191.714 104.136 192.12 103.057 192.386C102.819 192.444 102.603 192.494 102.399 192.539C101.854 190.953 100.986 188.436 100.983 188.436C100.601 187.327 99.4524 186.573 98.157 186.573L98.0956 186.574H98.0882C97.8945 186.578 96.4617 186.596 95.0166 186.615C94.4204 186.624 93.8242 186.633 93.3091 186.639C93.2697 186.096 93.2428 185.396 93.2428 184.578C93.2403 181.306 93.6845 176.105 95.4485 170.568C95.6644 169.887 95.3969 169.151 94.7738 168.715C90.8286 165.95 87.654 162.909 85.4214 160.435C84.3052 159.198 83.4219 158.102 82.801 157.263C82.6636 157.077 82.541 156.907 82.4306 156.75C82.887 156.463 83.4192 156.128 83.9467 155.796C85.1783 155.023 86.3609 154.279 86.3609 154.279H86.3633C87.1631 153.774 87.6169 152.963 87.6169 152.12C87.6169 151.836 87.5654 151.546 87.4575 151.266C87.4575 151.266 86.9594 149.965 86.4564 148.649C86.2649 148.148 86.0711 147.646 85.9067 147.212C87.3075 146.72 89.7169 146.011 92.7493 145.397C95.8676 144.765 99.6508 144.227 103.736 144.091C104.526 144.065 105.227 143.61 105.5 142.946C107.229 138.739 109.474 135.093 111.41 132.423C112.374 131.088 113.265 129.996 113.961 129.205C114.114 129.034 114.253 128.879 114.386 128.737C114.83 129.035 115.348 129.383 115.863 129.729C117.067 130.534 118.225 131.309 118.225 131.309C118.748 131.659 119.379 131.837 119.999 131.835C120.62 131.837 121.25 131.659 121.773 131.309C121.773 131.309 123.005 130.483 124.251 129.649C124.727 129.331 125.203 129.012 125.613 128.737C126.577 129.779 128.091 131.613 129.695 134.013C131.342 136.47 133.093 139.521 134.499 142.946C134.771 143.611 135.471 144.066 136.263 144.092C141.28 144.259 145.846 145.032 149.276 145.842C150.991 146.245 152.421 146.658 153.474 147.004C153.699 147.078 153.903 147.147 154.089 147.213C153.913 147.681 153.702 148.231 153.493 148.774C153.012 150.034 152.549 151.244 152.541 151.266C152.433 151.546 152.382 151.837 152.382 152.122C152.382 152.963 152.836 153.774 153.633 154.279H153.638C153.638 154.279 154.897 155.072 156.17 155.872C156.658 156.18 157.146 156.485 157.568 156.75C156.762 157.896 155.287 159.755 153.234 161.869Z" fill="#E39191"/>
<path d="M131.202 160.276C130.255 160.276 129.445 160.778 129.073 161.499H122.362L127.107 157.263C127.939 157.537 128.911 157.382 129.583 156.784C130.5 155.964 130.5 154.636 129.583 153.817C128.663 152.998 127.176 152.996 126.258 153.817C125.589 154.415 125.415 155.282 125.721 156.027L120.976 160.263V154.271C121.786 153.941 122.35 153.215 122.35 152.371C122.35 151.211 121.298 150.272 120 150.272C118.702 150.272 117.65 151.211 117.65 152.371C117.65 153.215 118.212 153.941 119.021 154.271V160.263L114.276 156.027C114.583 155.282 114.409 154.415 113.739 153.817C112.822 152.996 111.332 152.996 110.417 153.817C109.497 154.636 109.497 155.964 110.417 156.784C111.087 157.382 112.056 157.537 112.89 157.263L117.635 161.499H110.927C110.554 160.778 109.745 160.276 108.795 160.276C107.5 160.276 106.445 161.215 106.445 162.374C106.445 163.532 107.5 164.471 108.795 164.471C109.745 164.471 110.554 163.968 110.927 163.247H117.635L112.89 167.484C112.056 167.209 111.087 167.365 110.414 167.962C109.497 168.783 109.497 170.11 110.414 170.929C111.332 171.749 112.821 171.749 113.739 170.929C114.408 170.332 114.583 169.464 114.276 168.719L119.021 164.482V170.475C118.211 170.806 117.649 171.53 117.649 172.376C117.649 173.534 118.702 174.473 120 174.473C121.298 174.473 122.35 173.534 122.35 172.376C122.35 171.53 121.786 170.806 120.976 170.475V164.482L125.721 168.719C125.414 169.464 125.591 170.332 126.261 170.929C127.176 171.749 128.665 171.749 129.58 170.929C130.5 170.11 130.5 168.781 129.58 167.962C128.913 167.365 127.941 167.209 127.107 167.484L122.362 163.247H129.072C129.445 163.968 130.255 164.471 131.202 164.471C132.5 164.471 133.552 163.533 133.552 162.374C133.553 161.214 132.5 160.276 131.202 160.276Z" fill="#E39191"/>
<path d="M143.582 2.16646L143.577 2.16309H143.576L143.58 2.16646H143.582Z" fill="#E39191"/>
<path d="M189.706 32.3174C189.531 32.0414 189.298 31.8169 189.009 31.6371V31.6361L189.004 31.6327C188.935 31.5911 188.572 31.3634 188.079 31.0524C187.338 30.588 186.29 29.9297 185.429 29.3876C185.064 29.1586 184.737 28.9549 184.477 28.7907C184.504 28.7239 184.529 28.6559 184.558 28.5825C184.84 27.8476 185.262 26.7425 185.618 25.8137C185.795 25.3493 185.957 24.9276 186.074 24.6186C186.133 24.4642 186.182 24.3383 186.217 24.2474C186.234 24.2036 186.248 24.1686 186.258 24.1434L186.266 24.1204L186.263 24.1226C186.266 24.1215 186.266 24.1193 186.266 24.1171V24.1181L186.271 24.1093H186.268C186.357 23.8847 186.401 23.6593 186.401 23.4282C186.401 23.1292 186.33 22.8138 186.155 22.5081C185.984 22.2035 185.699 21.9145 185.351 21.7196L185.353 21.7207C185.191 21.6309 185.044 21.5596 184.877 21.484C184.566 21.346 184.19 21.1981 183.731 21.0328C182.137 20.4599 179.526 19.6845 176.195 19.0032C173.194 18.392 169.614 17.8653 165.711 17.6571C163.935 13.6124 161.773 10.1425 159.877 7.52361C158.846 6.09861 157.892 4.92469 157.112 4.04183C156.722 3.5993 156.376 3.23016 156.079 2.93118C155.929 2.78001 155.792 2.64964 155.66 2.53143C155.527 2.41189 155.407 2.30804 155.26 2.19949V2.19847C155.053 2.04524 154.811 1.92469 154.563 1.84808C154.315 1.77029 154.06 1.73748 153.822 1.73748C153.289 1.7407 152.828 1.89085 152.431 2.16023V2.15906H152.428C152.411 2.17225 152.308 2.24124 152.156 2.34305C151.621 2.70223 150.439 3.4931 149.389 4.1952C148.863 4.54676 148.373 4.87635 148.015 5.11629C148.007 5.11951 148.005 5.12273 148 5.1261C147.936 5.08333 147.872 5.04056 147.801 4.99354C147.107 4.52815 146.062 3.82811 145.181 3.23895C144.739 2.94422 144.342 2.67718 144.05 2.48103C143.903 2.38245 143.782 2.30364 143.699 2.24549C143.655 2.2181 143.623 2.19407 143.598 2.17986L143.579 2.16668C143.577 2.16551 143.576 2.16551 143.574 2.16448L143.576 2.16346L143.574 2.16229L143.569 2.15789L143.566 2.15892C143.169 1.89056 142.71 1.74173 142.178 1.73733C141.94 1.73616 141.687 1.77015 141.437 1.84793C141.188 1.92352 140.942 2.04715 140.735 2.20271L140.74 2.19949C140.735 2.20154 140.733 2.20389 140.73 2.20594C140.588 2.31229 140.468 2.41292 140.34 2.53128C140.095 2.75145 139.822 3.02405 139.503 3.3636C138.392 4.54427 136.748 6.52796 134.982 9.1553C133.394 11.52 131.719 14.4027 130.289 17.6548C125.436 17.9132 121.086 18.6667 117.722 19.4608C115.892 19.8923 114.354 20.3348 113.176 20.7214C112.587 20.913 112.087 21.0928 111.677 21.2537C111.471 21.3326 111.289 21.4081 111.123 21.4837C110.956 21.5581 110.809 21.6283 110.649 21.7193C110.298 21.9142 110.011 22.2044 109.842 22.51C109.67 22.8156 109.596 23.1299 109.596 23.4279C109.596 23.659 109.641 23.8868 109.729 24.109L109.732 24.1168V24.1178C109.737 24.1278 109.744 24.1506 109.759 24.1869C109.894 24.5351 110.392 25.8396 110.855 27.0542C111.088 27.6621 111.312 28.2471 111.478 28.6808C111.493 28.7203 111.508 28.7552 111.52 28.7892C111.456 28.8296 111.39 28.8712 111.317 28.9163C110.607 29.3643 109.538 30.0356 108.64 30.5997C108.188 30.8835 107.781 31.1387 107.482 31.327C107.332 31.4212 107.21 31.4978 107.124 31.5516C107.08 31.579 107.045 31.6008 107.021 31.615L106.999 31.6294L106.996 31.6306L106.989 31.636V31.637C106.699 31.8178 106.466 32.0423 106.292 32.3173C106.118 32.5954 106 32.934 106 33.3096C105.998 33.5527 106.052 33.8133 106.157 34.0511C106.228 34.2066 106.299 34.339 106.385 34.488C106.545 34.763 106.748 35.0795 107.008 35.4563C107.916 36.7673 109.511 38.7848 111.753 41.1035C113.772 43.1911 116.316 45.511 119.339 47.7311C117.737 53.238 117.327 58.2578 117.327 61.5775C117.327 62.5654 117.364 63.4021 117.415 64.067C117.445 64.401 117.477 64.6913 117.514 64.9443C117.553 65.2007 117.587 65.4065 117.653 65.6366L117.651 65.6354C117.72 65.8786 117.845 66.1109 118.004 66.309C118.242 66.6079 118.551 66.8193 118.866 66.9541C119.145 67.0736 119.435 67.1338 119.737 67.1491V67.1513C119.788 67.1545 119.82 67.1545 119.857 67.1545H119.876C119.894 67.1545 119.906 67.1545 119.926 67.1545C119.938 67.1545 119.965 67.1533 120.006 67.1523C120.419 67.1469 121.962 67.1259 123.402 67.1063C124.118 67.0975 124.813 67.0877 125.325 67.0811C125.37 67.0811 125.411 67.0789 125.453 67.0789C125.475 67.1457 125.5 67.2159 125.527 67.2903C125.782 68.0318 126.169 69.1468 126.491 70.0855C126.653 70.5542 126.8 70.9804 126.908 71.2925C126.962 71.4479 127.006 71.5749 127.038 71.6671C127.053 71.7119 127.065 71.7469 127.075 71.7733L127.084 71.8017L127.082 71.7929C127.212 72.1839 127.45 72.5202 127.813 72.794C127.997 72.9298 128.213 73.0481 128.461 73.1325C128.706 73.2157 128.981 73.2617 129.258 73.2617C129.307 73.2617 129.344 73.2597 129.369 73.2585L129.4 73.2573C129.587 73.2465 129.749 73.2279 129.933 73.2015C130.274 73.1523 130.671 73.0779 131.152 72.9737C132.823 72.6122 135.453 71.8894 138.608 70.7097C141.449 69.644 144.7 68.2026 148.002 66.321C152.102 68.6581 156.13 70.3165 159.381 71.4205C161.152 72.0208 162.693 72.4588 163.903 72.7568C164.509 72.9047 165.031 73.0175 165.468 73.1007C165.686 73.1423 165.883 73.1751 166.067 73.2015C166.248 73.2279 166.413 73.2465 166.597 73.2573C166.663 73.2617 166.712 73.2617 166.741 73.2617C167.016 73.2617 167.293 73.2145 167.539 73.1313C167.909 73.0042 168.208 72.805 168.432 72.5792C168.657 72.3515 168.817 72.0963 168.912 71.8061L168.915 71.8039V71.8018L168.917 71.7952C168.944 71.7175 169.072 71.3429 169.246 70.8358C169.514 70.0638 169.891 68.9706 170.201 68.0713C170.333 67.6912 170.451 67.3518 170.544 67.079C170.622 67.0812 170.704 67.0812 170.792 67.0834C171.66 67.0944 172.968 67.112 174.067 67.1262C174.619 67.134 175.115 67.1404 175.48 67.1458C175.664 67.1491 175.814 67.1514 175.92 67.1514C175.973 67.1526 176.015 67.1536 176.042 67.1536L176.072 67.1548C176.115 67.1548 176.138 67.1548 176.14 67.1548C176.604 67.1526 177.041 67.0398 177.446 66.7912C177.647 66.6674 177.838 66.5053 177.995 66.3081C178.152 66.1111 178.277 65.8787 178.346 65.6368C178.41 65.4068 178.444 65.2008 178.483 64.9456C178.537 64.5667 178.584 64.1001 178.618 63.5382C178.65 62.9753 178.672 62.318 178.672 61.5787C178.67 58.2579 178.26 53.237 176.656 47.729C180.414 44.969 183.434 42.0554 185.625 39.6283C186.82 38.3063 187.767 37.13 188.464 36.1913C188.81 35.7216 189.097 35.3129 189.32 34.9667C189.43 34.7926 189.529 34.6349 189.614 34.488C189.698 34.339 189.771 34.2066 189.84 34.0522C189.946 33.8146 190 33.5549 190 33.3096C190 32.9329 189.882 32.5935 189.706 32.3174ZM181.234 38.8694C179.136 41.0325 176.435 43.465 173.224 45.7171C172.6 46.1529 172.335 46.889 172.549 47.5691C174.313 53.1057 174.757 58.3071 174.757 61.5787C174.757 62.4024 174.728 63.0945 174.686 63.639C174.131 63.6324 173.479 63.6225 172.836 63.6126C171.332 63.594 169.885 63.5743 169.885 63.5743C169.88 63.5743 169.872 63.5743 169.87 63.5743H169.84H169.838H169.835C168.54 63.5765 167.399 64.3301 167.014 65.4352V65.4364C167.014 65.4364 166.56 66.753 166.101 68.0792C165.925 68.5896 165.751 69.0989 165.598 69.5392C165.203 69.4516 164.74 69.3389 164.219 69.1997C160.799 68.2928 154.896 66.2677 149.089 62.7869C148.432 62.3926 147.566 62.3926 146.908 62.7869C142.745 65.2808 138.537 67.03 135.225 68.1516C133.571 68.7135 132.136 69.1199 131.057 69.386C130.819 69.444 130.603 69.4944 130.399 69.5392C129.854 67.9533 128.986 65.4364 128.983 65.4364C128.601 64.3269 127.452 63.5734 126.157 63.5734L126.096 63.5744H126.088C125.894 63.5778 124.462 63.5964 123.017 63.615C122.42 63.6238 121.824 63.6326 121.309 63.6391C121.27 63.0958 121.243 62.3959 121.243 61.5778C121.24 58.3062 121.684 53.1047 123.448 47.5682C123.664 46.8868 123.397 46.1508 122.774 45.7149C118.829 42.9504 115.654 39.9088 113.421 37.4346C112.305 36.1981 111.422 35.1016 110.801 34.2627C110.664 34.0765 110.541 33.9068 110.431 33.75C110.887 33.4632 111.419 33.1281 111.947 32.7961C113.178 32.0228 114.361 31.2791 114.361 31.2791H114.363C115.163 30.7742 115.617 29.9627 115.617 29.1204C115.617 28.8356 115.565 28.5465 115.457 28.2661C115.457 28.2661 114.959 26.9649 114.456 25.6494C114.265 25.1477 114.071 24.6462 113.907 24.2124C115.308 23.7197 117.717 23.011 120.749 22.3966C123.868 21.7645 127.651 21.2268 131.736 21.091C132.526 21.0648 133.227 20.6102 133.5 19.9464C135.229 15.7393 137.474 12.0933 139.41 9.42293C140.374 8.08787 141.265 6.99583 141.961 6.20511C142.114 6.03416 142.253 5.87874 142.386 5.73738C142.83 6.03533 143.348 6.3825 143.863 6.72864C145.067 7.53357 146.225 8.30906 146.225 8.30906C146.748 8.65857 147.379 8.83699 147.999 8.83494C148.62 8.83699 149.25 8.65857 149.773 8.30906C149.773 8.30906 151.005 7.48318 152.251 6.64866C152.727 6.33108 153.203 6.01233 153.613 5.73738C154.577 6.77903 156.091 8.61258 157.695 11.0133C159.342 13.47 161.093 16.5214 162.499 19.9462C162.771 20.6111 163.471 21.0657 164.263 21.0919C169.28 21.2595 173.846 22.0317 177.276 22.8422C178.991 23.2452 180.421 23.6581 181.474 24.0043C181.699 24.0775 181.903 24.1467 182.089 24.2135C181.913 24.6812 181.702 25.2309 181.493 25.7743C181.012 27.0339 180.549 28.2441 180.541 28.2661C180.433 28.5465 180.382 28.8368 180.382 29.1216C180.382 29.9627 180.836 30.7742 181.633 31.2793H181.638C181.638 31.2793 182.897 32.0722 184.17 32.8719C184.658 33.1796 185.146 33.4852 185.568 33.7502C184.762 34.8957 183.287 36.7555 181.234 38.8694Z" fill="#E39191"/>
<path d="M159.202 37.2756C158.255 37.2756 157.445 37.7783 157.073 38.499H150.362L155.107 34.2625C155.939 34.5374 156.911 34.3818 157.583 33.7838C158.5 32.9635 158.5 31.6361 157.583 30.8168C156.663 29.9975 155.176 29.9965 154.258 30.8168C153.589 31.4147 153.415 32.2822 153.721 33.0271L148.976 37.2625V31.2713C149.786 30.9406 150.35 30.2155 150.35 29.371C150.35 28.2111 149.298 27.2725 148 27.2725C146.702 27.2725 145.65 28.2113 145.65 29.371C145.65 30.2155 146.212 30.9406 147.021 31.2713V37.2625L142.276 33.0271C142.583 32.2822 142.409 31.4149 141.739 30.8168C140.822 29.9965 139.332 29.9965 138.417 30.8168C137.497 31.6361 137.497 32.9635 138.417 33.7838C139.087 34.3818 140.056 34.5374 140.89 34.2625L145.635 38.499H138.927C138.554 37.7783 137.745 37.2756 136.795 37.2756C135.5 37.2756 134.445 38.2153 134.445 39.3741C134.445 40.5318 135.5 41.4715 136.795 41.4715C137.745 41.4715 138.554 40.9677 138.927 40.247H145.635L140.89 44.4836C140.056 44.2087 139.087 44.3653 138.414 44.9622C137.497 45.7827 137.497 47.11 138.414 47.9292C139.332 48.7485 140.821 48.7485 141.739 47.9292C142.408 47.3323 142.583 46.4638 142.276 45.7189L147.021 41.4825V47.4746C146.211 47.8065 145.649 48.5304 145.649 49.3761C145.649 50.5337 146.702 51.4734 148 51.4734C149.298 51.4734 150.35 50.5337 150.35 49.3761C150.35 48.5304 149.786 47.8065 148.976 47.4746V41.4825L153.721 45.7189C153.414 46.4638 153.591 47.3323 154.261 47.9292C155.176 48.7485 156.665 48.7485 157.58 47.9292C158.5 47.11 158.5 45.7815 157.58 44.9622C156.913 44.3653 155.941 44.2087 155.107 44.4836L150.362 40.247H157.072C157.445 40.9677 158.255 41.4715 159.202 41.4715C160.5 41.4715 161.552 40.5328 161.552 39.3741C161.553 38.2143 160.5 37.2756 159.202 37.2756Z" fill="#E39191"/>
</svg>
